<svg width="544" height="357" viewBox="0 0 544 357" fill="none" xmlns="http://www.w3.org/2000/svg">
<path d="M24.6378 326.922L48.0587 299.935H33.6685L12.9484 323.985V299.935H1.00586V355.27H12.9484V329.731L35.2299 355.27H49.4091L24.6378 326.922ZM57.9756 299.935V355.27H69.8338V299.935H57.9756ZM122.795 335.69C122.858 332.17 122.014 328.695 120.347 325.602C118.731 322.596 116.242 320.161 113.215 318.621C109.673 316.824 105.742 315.946 101.779 316.068C98.9202 315.901 96.0568 316.308 93.3549 317.265C90.653 318.222 88.1662 319.71 86.0385 321.644C84.1552 323.604 82.6923 325.935 81.7412 328.491C80.7901 331.046 80.3711 333.773 80.5104 336.499C80.3584 339.275 80.8384 342.049 81.9137 344.61C82.9889 347.17 84.6309 349.448 86.7138 351.269C91.5449 354.986 97.5254 356.856 103.594 356.547C106.421 356.529 109.243 356.287 112.034 355.823C114.452 355.481 116.819 354.838 119.081 353.908V345.395C116.923 346.204 114.689 346.789 112.413 347.14C109.959 347.558 107.475 347.772 104.986 347.779C96.7995 347.779 92.3263 345.352 91.4823 340.5H122.541L122.795 335.69ZM91.7355 332.796C91.7516 331.667 92.0132 330.557 92.5017 329.542C92.9903 328.527 93.6939 327.632 94.5629 326.922C96.5862 325.389 99.085 324.635 101.61 324.793C104.155 324.639 106.674 325.375 108.742 326.879C109.616 327.594 110.323 328.495 110.812 329.518C111.301 330.541 111.56 331.66 111.569 332.796H91.7355ZM176.135 325.815C174.528 322.803 172.097 320.321 169.13 318.664C165.96 316.882 162.377 315.986 158.749 316.068C156.157 316.068 153.581 316.47 151.111 317.259C148.865 317.968 146.784 319.126 144.992 320.665V299.935H133.302V355.27H144.781V351.014C146.601 352.775 148.754 354.15 151.111 355.057C153.617 355.949 156.261 356.382 158.918 356.334C162.534 356.409 166.109 355.544 169.299 353.823C172.27 352.211 174.706 349.754 176.304 346.757C178.005 343.472 178.893 339.822 178.893 336.116C178.893 332.41 178.005 328.759 176.304 325.474L176.135 325.815ZM163.475 344.203C162.438 345.201 161.212 345.979 159.871 346.491C158.53 347.003 157.101 347.238 155.668 347.183C153.33 347.201 151.039 346.52 149.085 345.225C147.159 343.943 145.682 342.081 144.865 339.904V332.711C145.672 330.539 147.152 328.688 149.085 327.432C151.034 326.087 153.349 325.387 155.71 325.432C157.143 325.377 158.572 325.612 159.913 326.124C161.254 326.635 162.48 327.413 163.517 328.411C164.538 329.449 165.334 330.687 165.857 332.05C166.38 333.412 166.618 334.869 166.556 336.329C166.65 337.767 166.447 339.209 165.96 340.565C165.474 341.92 164.714 343.159 163.728 344.203H163.475ZM229.982 335.69C230.045 332.17 229.202 328.695 227.535 325.602C225.918 322.596 223.43 320.161 220.403 318.621C216.861 316.824 212.93 315.946 208.967 316.068C206.099 315.873 203.222 316.258 200.505 317.201C197.787 318.144 195.284 319.626 193.142 321.558C191.25 323.513 189.782 325.843 188.83 328.4C187.878 330.957 187.464 333.686 187.614 336.414C187.462 339.19 187.942 341.964 189.017 344.524C190.092 347.085 191.734 349.363 193.817 351.184C198.648 354.901 204.629 356.771 210.697 356.462C213.595 356.454 216.488 356.212 219.348 355.738C221.766 355.396 224.134 354.753 226.395 353.823V345.31C224.236 346.113 222.002 346.698 219.728 347.055C217.259 347.472 214.761 347.685 212.258 347.693C204.114 347.693 199.598 345.267 198.754 340.415H229.856L229.982 335.69ZM198.881 332.796C198.914 331.671 199.183 330.565 199.67 329.553C200.157 328.54 200.852 327.643 201.708 326.922C203.748 325.39 206.26 324.636 208.798 324.793C211.342 324.639 213.862 325.375 215.93 326.879C216.797 327.6 217.5 328.502 217.988 329.524C218.476 330.546 218.739 331.662 218.757 332.796H198.881ZM260.661 347.183C259.857 347.273 259.042 347.191 258.271 346.942C257.5 346.692 256.791 346.281 256.188 345.735C255.256 344.316 254.825 342.622 254.965 340.926V325.9H263.826V317.387H254.838V305.98H242.98V317.387H237.494V325.9H242.98V342.501C242.757 346.238 243.982 349.916 246.398 352.759C247.711 354.054 249.281 355.053 251.005 355.691C252.729 356.33 254.567 356.592 256.399 356.462C259.516 356.559 262.618 356.008 265.514 354.844V345.906C264.023 346.72 262.358 347.158 260.661 347.183ZM315.859 335.69C315.922 332.17 315.079 328.695 313.411 325.602C311.782 322.606 309.297 320.174 306.28 318.621C302.723 316.821 298.778 315.943 294.801 316.068C291.94 315.876 289.071 316.264 286.36 317.206C283.65 318.149 281.154 319.629 279.018 321.558C277.127 323.513 275.658 325.843 274.707 328.4C273.755 330.957 273.341 333.686 273.49 336.414C273.339 339.186 273.816 341.956 274.883 344.515C275.951 347.074 277.581 349.354 279.651 351.184C284.486 354.894 290.464 356.763 296.531 356.462C299.529 356.453 302.521 356.197 305.478 355.696C307.896 355.354 310.263 354.71 312.525 353.78V345.267C310.365 346.071 308.132 346.655 305.858 347.012C303.389 347.429 300.891 347.643 298.388 347.651C290.244 347.651 285.728 345.225 284.884 340.372H315.986L315.859 335.69ZM284.758 332.796C284.782 331.669 285.047 330.561 285.535 329.547C286.023 328.534 286.722 327.638 287.585 326.922C289.625 325.39 292.136 324.636 294.675 324.793C297.218 324.646 299.736 325.382 301.806 326.879C302.674 327.6 303.376 328.502 303.865 329.524C304.353 330.546 304.615 331.662 304.634 332.796H284.758ZM348.986 347.183C345.847 347.34 342.749 346.409 340.208 344.544C339.078 343.517 338.198 342.243 337.634 340.818C337.071 339.394 336.84 337.857 336.959 336.329C336.839 334.796 337.073 333.255 337.644 331.83C338.216 330.404 339.108 329.132 340.25 328.113C342.78 326.221 345.882 325.273 349.028 325.432C351.404 325.406 353.773 325.692 356.075 326.283C358.16 326.818 360.132 327.727 361.899 328.965V319.558C357.416 317.012 352.309 315.801 347.171 316.068C341.213 315.791 335.37 317.781 330.798 321.644C326.932 325.622 324.766 330.971 324.766 336.541C324.766 342.112 326.932 347.461 330.798 351.439C335.393 355.139 341.172 357.016 347.045 356.717C352.376 356.962 357.669 355.694 362.321 353.057V343.735C358.296 346.152 353.667 347.349 348.986 347.183ZM409.5 320.239C407.995 318.751 406.193 317.602 404.214 316.868C402.235 316.134 400.125 315.832 398.022 315.982C395.548 315.963 393.095 316.441 390.806 317.387C388.508 318.341 386.448 319.794 384.771 321.644V299.935H372.997V355.27H384.856V331.178C385.906 329.44 387.353 327.981 389.076 326.922C390.773 325.952 392.695 325.453 394.646 325.474C399.119 325.474 401.398 327.901 401.398 332.838V355.313H413.214V331.476C413.46 327.387 412.129 323.361 409.5 320.239ZM461.702 320.239C460.189 318.747 458.381 317.596 456.395 316.863C454.408 316.129 452.291 315.829 450.181 315.982C447.618 315.979 445.08 316.485 442.712 317.472C440.358 318.389 438.249 319.847 436.55 321.729V317.387H425.072V355.398H436.93V331.306C437.98 329.568 439.427 328.109 441.15 327.049C442.85 326.085 444.77 325.586 446.721 325.602C451.236 325.602 453.473 328.028 453.473 332.966V355.44H465.331V331.604C465.61 327.472 464.277 323.394 461.617 320.239H461.702ZM488.414 300.361C488.248 300.157 488.048 299.984 487.823 299.85C486.622 298.905 485.126 298.422 483.603 298.488C482.082 298.429 480.588 298.912 479.383 299.85C479.18 299.997 478.996 300.168 478.835 300.361C478.234 300.959 477.757 301.671 477.431 302.457C477.105 303.242 476.937 304.085 476.937 304.937C476.937 305.788 477.105 306.631 477.431 307.417C477.757 308.202 478.234 308.915 478.835 309.512C479.447 310.102 480.168 310.563 480.957 310.87C481.747 311.177 482.589 311.323 483.434 311.3C485.155 311.348 486.825 310.705 488.076 309.512C488.677 308.915 489.155 308.202 489.48 307.417C489.806 306.631 489.974 305.788 489.974 304.937C489.974 304.085 489.806 303.242 489.48 302.457C489.155 301.671 488.677 300.959 488.076 300.361H488.414ZM477.822 317.387V355.398H489.764V317.387H477.822ZM525.761 335.903L541.797 317.387H528.04L514.325 333.477V299.935H502.467V355.27H514.325V338.244L530.023 355.27H543.738L525.761 335.903Z" fill="white" fill-opacity="0.1"/>
<path d="M592.774 -8.15119H428.617V51.5676H479.51V242.557H541.882V51.5676H592.774V-8.15119Z" fill="white" fill-opacity="0.1"/>
<path d="M341.432 -8.02335H210.106V54.8879V179.646V242.557H341.432C357.967 242.546 373.82 235.913 385.508 224.116C397.196 212.319 403.761 196.324 403.761 179.646V54.8879C403.761 38.2102 397.196 22.2149 385.508 10.418C373.82 -1.37895 357.967 -8.01206 341.432 -8.02335ZM272.477 183.051V51.4401H311.639C328.055 51.4401 343.162 68.4662 343.162 84.8537V149.68C343.162 166.238 328.055 183.051 311.639 183.051H272.477Z" fill="white" fill-opacity="0.1"/>
<path d="M165.88 242.557L122.752 116.522L165.374 -8.15119H103.846L63.1658 110.903V-8.0235H0.83667V242.557H63.1658V122.141L104.353 242.557H165.88Z" fill="white" fill-opacity="0.1"/>
<path d="M171.62 56.1221L194.451 -12.7482H133.176L110.388 55.9944L171.62 56.1221Z" fill="#A5706A"/>
</svg>
