<svg width="130" height="80" viewBox="0 0 130 80" fill="none" xmlns="http://www.w3.org/2000/svg">
<path d="M5.23896 73.3298L10.33 67.4904H7.22211L2.66382 72.6843V67.4904H0.059082V79.4333H2.66382V73.9461L7.5477 79.4333H10.6556L5.23896 73.3298ZM12.55 67.4904V79.4333H15.1547V67.4904H12.55ZM26.7872 75.2078C26.7872 74.4449 26.6096 73.7113 26.2544 73.0364C25.8993 72.3908 25.3369 71.8627 24.6857 71.5105C23.9161 71.1291 23.0281 70.9237 22.1697 70.953C20.6602 70.953 19.5058 71.3345 18.7066 72.1267C17.9074 72.919 17.4931 73.9754 17.4931 75.3252C17.4931 76.7044 17.937 77.7607 18.8546 78.5237C19.7722 79.2866 21.0154 79.6681 22.5841 79.6681C23.2057 79.6681 23.8569 79.6094 24.4785 79.5214C25.0113 79.4333 25.5441 79.316 26.0176 79.1105V77.2912C25.5441 77.4673 25.0409 77.5847 24.5377 77.6727C24.0049 77.7607 23.4425 77.8194 22.9097 77.8194C21.1042 77.8194 20.1274 77.2912 19.9498 76.2349H26.7576L26.7872 75.2078ZM19.9794 74.5916C19.9794 74.0928 20.2162 73.6526 20.601 73.3298C21.045 73.0071 21.6074 72.831 22.1401 72.8603C22.7025 72.831 23.2649 72.9777 23.7089 73.3005C24.0937 73.6233 24.3305 74.0928 24.3305 74.5623L19.9794 74.5916ZM38.5381 73.0657C38.1829 72.4202 37.6502 71.892 36.999 71.5105C36.2886 71.1291 35.519 70.953 34.7198 70.953C34.1575 70.953 33.5951 71.041 33.0623 71.2171C32.5591 71.3638 32.1151 71.6279 31.7303 71.9507V67.4904H29.1256V79.4333H31.6415V78.553C32.0263 78.9345 32.4999 79.2279 33.0327 79.4333C33.5951 79.6094 34.1574 79.7268 34.7494 79.6974C35.5486 79.7268 36.3182 79.5214 37.0286 79.1692C37.6798 78.8171 38.2126 78.2889 38.5677 77.6434C39.2781 76.2055 39.2781 74.5036 38.5381 73.0657ZM35.7854 77.0565C35.3118 77.4966 34.6902 77.7314 34.0686 77.702C33.5655 77.702 33.0623 77.5553 32.6183 77.2619C32.2039 76.9978 31.8783 76.587 31.7007 76.1175V74.5623C31.8783 74.0928 32.2039 73.7113 32.6183 73.4179C33.0327 73.1244 33.5655 72.9777 34.0686 72.9777C34.7198 72.9484 35.3118 73.1831 35.7854 73.6233C36.6438 74.5916 36.6438 76.0881 35.7854 77.0565ZM50.3779 75.2078C50.3779 74.4449 50.2003 73.7113 49.8451 73.0364C49.4899 72.3908 48.9275 71.8627 48.2763 71.5105C47.5067 71.1291 46.6187 70.953 45.7604 70.953C44.2508 70.953 43.0964 71.3345 42.2972 72.1267C41.4981 72.919 41.0837 73.9754 41.0837 75.3252C41.0837 76.7044 41.5277 77.7607 42.4452 78.5237C43.3628 79.2866 44.606 79.6681 46.1748 79.6681C46.7963 79.6681 47.4475 79.6094 48.0691 79.5214C48.6019 79.4333 49.1347 79.316 49.6083 79.1105V77.2912C49.1347 77.4673 48.6315 77.5847 48.1283 77.6727C47.5955 77.7607 47.0331 77.8194 46.5004 77.8194C44.6948 77.8194 43.718 77.2912 43.5404 76.2349H50.3483V75.2078H50.3779ZM43.57 74.5916C43.57 74.0928 43.8068 73.6526 44.1916 73.3298C44.6356 73.0071 45.198 72.831 45.7308 72.8603C46.2932 72.831 46.8555 72.9777 47.2995 73.3005C47.6843 73.6233 47.9211 74.0928 47.9211 74.5623L43.57 74.5916ZM57.0673 77.702C56.7121 77.7314 56.3569 77.614 56.0905 77.3793C55.8833 77.0858 55.7945 76.7044 55.8241 76.3522V73.0951H57.7777V71.2171H55.8241V68.7522H53.2194V71.2171H52.0058V73.0951H53.2194V76.675C53.2194 77.614 53.4858 78.3476 53.9594 78.8758C54.433 79.404 55.2025 79.6681 56.1497 79.6681C56.8305 79.6974 57.5113 79.58 58.1625 79.3159V77.3793C57.8369 77.5847 57.4521 77.702 57.0673 77.702ZM69.203 75.2078C69.203 74.4449 69.0254 73.7113 68.6702 73.0364C68.315 72.3908 67.7526 71.8627 67.1014 71.5105C66.3319 71.1291 65.4439 70.953 64.5855 70.953C63.0759 70.953 61.9216 71.3345 61.1224 72.1267C60.3232 72.919 59.9088 73.9754 59.9088 75.3252C59.9088 76.7044 60.3528 77.7607 61.2704 78.5237C62.188 79.2866 63.4311 79.6681 64.9999 79.6681C65.6215 79.6681 66.2727 79.6094 66.8942 79.5214C67.427 79.4333 67.9598 79.316 68.4334 79.1105V77.2912C67.9598 77.4673 67.4566 77.5847 66.9534 77.6727C66.4207 77.7607 65.8583 77.8194 65.3255 77.8194C63.5199 77.8194 62.5432 77.2912 62.3656 76.2349H69.203V75.2078ZM62.3656 74.5916C62.3656 74.0928 62.6024 73.6526 62.9871 73.3298C63.4311 73.0071 63.9935 72.831 64.5263 72.8603C65.0887 72.831 65.6511 72.9777 66.0951 73.3005C66.4799 73.6233 66.7167 74.0928 66.7167 74.5623L62.3656 74.5916ZM76.4548 77.702C75.774 77.7314 75.0932 77.526 74.5309 77.1152C74.0573 76.7337 73.8205 76.1468 73.8205 75.3546C73.8205 74.5623 74.0573 73.9754 74.5605 73.5939C75.1228 73.1831 75.8036 72.9777 76.4844 73.0071C77.0172 73.0071 77.5204 73.0657 78.0236 73.1831C78.4972 73.3005 78.9115 73.5059 79.2963 73.77V71.7453C78.4972 71.2464 77.402 70.9823 76.07 70.9823C74.5605 70.9823 73.3765 71.3638 72.4885 72.1267C71.6005 72.8897 71.1565 73.9754 71.1565 75.3546C71.1565 76.7337 71.6005 77.7901 72.4885 78.553C73.3765 79.316 74.5605 79.6974 76.0404 79.6974C77.4316 79.6974 78.5564 79.4333 79.4147 78.9051V76.8804C78.5268 77.4673 77.4908 77.7314 76.4548 77.702ZM89.7449 71.8627C89.1825 71.2758 88.3537 70.9823 87.229 70.9823C86.6962 70.9823 86.1338 71.0704 85.6306 71.2758C85.1274 71.4812 84.6834 71.7746 84.2986 72.1854V67.4904H81.6939V79.4333H84.2986V74.2395C84.5354 73.858 84.861 73.5352 85.2754 73.3005C85.6602 73.0951 86.0746 72.9777 86.489 72.9777C87.4657 72.9777 87.9689 73.5059 87.9689 74.5623V79.404H90.5737V74.2688C90.6329 73.4179 90.3369 72.5376 89.7449 71.8627ZM101.2 71.8627C100.637 71.2758 99.8086 70.9823 98.6839 70.9823C98.1215 70.9823 97.5591 71.0997 97.0263 71.3051C96.4935 71.5105 96.0495 71.8333 95.6647 72.2441V71.2464H93.1488V79.4333H95.7535V74.2395C95.9903 73.858 96.3159 73.5352 96.7303 73.3005C97.1151 73.0951 97.5295 72.9777 97.9439 72.9777C98.9207 72.9777 99.4238 73.5059 99.4238 74.5623V79.404H102.029V74.2688C102.088 73.4179 101.792 72.5376 101.2 71.8627ZM107.06 67.6078C107.031 67.5785 106.972 67.5198 106.942 67.4904C106.409 67.109 105.699 67.109 105.166 67.4904C105.107 67.5198 105.077 67.5491 105.048 67.6078C104.485 68.136 104.485 69.0163 105.048 69.5738C105.61 70.102 106.498 70.102 107.09 69.5738C107.623 69.0457 107.623 68.1653 107.06 67.6078C107.09 67.6078 107.06 67.6078 107.06 67.6078ZM104.752 71.2171V79.404H107.356V71.2171H104.752ZM115.259 75.2372L118.752 71.2464H115.733L112.714 74.709V67.4904H110.109V79.4333H112.714V75.736L116.147 79.4333H119.167L115.259 75.2372Z" fill="black"/>
<path d="M130 0.997681H93.9482V13.8796H105.107V55.1074H118.812V13.8796H130V0.997681Z" fill="black"/>
<path d="M74.797 1.02698H59.6718H45.9673V14.6131V41.5506V55.1367H74.797C82.3448 55.1367 88.4718 49.0626 88.4718 41.5506V14.6131C88.4718 7.10112 82.3448 1.02698 74.797 1.02698ZM59.6422 42.2549V13.8502H69.9131C72.8138 13.8502 75.1522 16.1683 75.1522 19.044V36.3861C75.1522 39.2325 72.7842 42.2255 69.9131 42.2255L59.6422 42.2549Z" fill="black"/>
<path d="M36.2591 55.1074L26.7873 27.9058L36.1407 0.997681H22.6138L13.7045 26.7027V1.02702H0V55.1074H13.7045V29.1089L22.7322 55.1074H36.2591Z" fill="black"/>
<path d="M37.5025 14.8772L42.5048 0H29.0667C28.7411 0.938998 24.0645 14.8479 24.0645 14.8479V14.8772H37.5025Z" fill="#E52713"/>
</svg>
