<svg width="22" height="16" viewBox="0 0 22 16" fill="none" xmlns="http://www.w3.org/2000/svg">
<path d="M19.1586 0.865448H1.84998C0.830204 0.865448 0.00427246 1.69651 0.00427246 2.71115V13.7854C0.00427246 14.806 0.836274 15.6311 1.84998 15.6311H19.1586C20.1698 15.6311 21.0043 14.8095 21.0043 13.7854V2.71115C21.0043 1.69831 20.1816 0.865448 19.1586 0.865448ZM18.9001 2.09592C18.523 2.471 12.0335 8.92637 11.8094 9.14925C11.4608 9.49788 10.9973 9.68984 10.5043 9.68984C10.0113 9.68984 9.54779 9.49784 9.19801 9.1481C9.04732 8.99819 2.6294 2.61411 2.10846 2.09592H18.9001ZM1.23474 13.5349V2.96237L6.55192 8.25154L1.23474 13.5349ZM2.10924 14.4006L7.42433 9.11931L8.32909 10.0193C8.91012 10.6003 9.68261 10.9203 10.5043 10.9203C11.3259 10.9203 12.0984 10.6003 12.6783 10.0205L13.5842 9.11931L18.8993 14.4006H2.10924ZM19.7738 13.5349L14.4566 8.25154L19.7738 2.96237V13.5349Z" fill="white"/>
</svg>
