<svg width="21" height="24" viewBox="0 0 21 24" fill="none" xmlns="http://www.w3.org/2000/svg">
<path d="M16.5672 13.6247C16.0937 13.2635 15.5805 13.1259 15.0826 13.2266C14.5891 13.3263 14.1652 13.6533 13.8545 14.1678L13.0003 15.5829C12.9601 15.5704 12.9244 15.5571 12.8887 15.5438C12.853 15.5305 12.8184 15.5221 12.7781 15.5097C12.6329 15.4672 12.4967 15.4228 12.3832 15.3739C11.1497 14.8429 9.96443 14.0608 8.7676 12.9885C8.21791 12.4836 7.82849 12.0489 7.50498 11.5907C7.70312 11.2888 7.88569 10.9798 8.06119 10.6825L8.1202 10.5782C8.16256 10.508 8.20139 10.4437 8.24375 10.3735C8.28159 10.3043 8.32494 10.239 8.36377 10.1747C9.01683 9.09299 8.77956 7.91912 7.75763 7.17594L6.52028 6.27608C6.38218 6.17565 6.23856 6.07121 6.10499 5.96986C5.83785 5.76717 5.54961 5.55334 5.25078 5.35706C4.78225 5.02053 4.27663 4.89684 3.78772 4.99567C3.29881 5.09449 2.8764 5.40576 2.56277 5.90552L1.57988 7.54676C1.19158 8.18996 1.03997 8.90852 1.13112 9.68583C1.28384 10.9076 1.83056 11.9573 2.22908 12.6468C3.19659 14.3097 4.43948 15.7731 6.13437 17.2581C8.19829 19.0536 10.5065 20.3325 12.9866 21.0633C13.9465 21.3365 15.2111 21.625 16.5101 21.4549C16.5926 21.4433 16.6751 21.4318 16.7521 21.4162C17.6484 21.2351 18.3291 20.733 18.777 19.9186L18.7876 19.901L18.7866 19.8961C18.7901 19.8903 18.7891 19.8853 18.7927 19.8795C18.9188 19.6178 19.0762 19.3704 19.2395 19.1064L19.2784 19.042C19.4321 18.8005 19.5532 18.6066 19.6571 18.4213C19.9567 17.8987 20.0602 17.3388 19.9516 16.8011C19.8419 16.2586 19.5254 15.7887 19.0393 15.4351L16.5672 13.6247ZM18.5845 17.5908L18.5392 17.6L18.5371 17.6826C18.4534 17.8278 18.3686 17.9682 18.2759 18.1153L18.2078 18.2214C18.0222 18.5156 17.8226 18.8332 17.648 19.1816C17.3812 19.6565 17.0116 19.9263 16.4774 20.0343C16.4231 20.0453 16.3688 20.0562 16.3135 20.0623C15.2211 20.2061 14.1224 19.9456 13.2876 19.7088C10.9884 19.0338 8.84905 17.844 6.93474 16.1826C5.35332 14.7927 4.20878 13.4428 3.32197 11.9228C2.78958 11.0139 2.5093 10.28 2.41707 9.54398C2.36556 9.10262 2.4457 8.70653 2.66456 8.344L3.64591 6.71846C3.77145 6.52367 3.91748 6.40689 4.06686 6.37669C4.25247 6.33917 4.43683 6.43539 4.55836 6.52376L4.57493 6.53582C4.83156 6.70983 5.08566 6.89462 5.38042 7.11739C5.45223 7.16962 5.52404 7.22184 5.59685 7.279C5.66866 7.33122 5.74047 7.38344 5.81328 7.4406L7.04511 8.33644C7.4594 8.63773 7.52022 8.93859 7.25546 9.37713C7.22722 9.42391 7.19898 9.47069 7.17074 9.51747C7.11426 9.61102 7.06131 9.69873 7.00483 9.79229C6.74814 10.2241 6.53027 10.5915 6.27873 10.9555L6.2752 10.9614C6.27167 10.9672 6.26008 10.9798 6.25402 10.9965C5.98067 11.4624 6.11928 11.8451 6.25007 12.0959L6.2661 12.1286L6.27262 12.1375C6.67675 12.7848 7.18707 13.3747 7.92251 14.0526L7.93355 14.0606C9.24584 15.238 10.5486 16.0887 11.9112 16.6757C12.0916 16.7522 12.2625 16.8049 12.4334 16.8577C12.5786 16.9002 12.7148 16.9445 12.8283 16.9934L12.8384 16.9965C12.8429 16.9956 12.8484 16.9997 12.8484 16.9997C12.8595 17.0077 12.8741 17.0099 12.8841 17.013C13.0449 17.0626 13.1932 17.0737 13.3336 17.0453C13.6957 16.9721 13.8687 16.6856 13.9252 16.5921L14.9136 14.9548C14.9983 14.8145 15.1369 14.6376 15.3225 14.6001C15.5217 14.5598 15.711 14.6807 15.8069 14.7589L18.3093 16.5787C18.7251 16.8642 18.8035 17.1821 18.5845 17.5908Z" fill="white"/>
<path d="M10.644 7.49104C11.616 7.47426 12.5738 7.78377 13.4079 8.39036C14.2365 8.99294 14.8741 9.83948 15.2399 10.8334C15.3575 11.1587 15.6689 11.3473 15.9813 11.2842C16.0175 11.2768 16.0436 11.2664 16.0743 11.2551L16.0879 11.2523C16.2494 11.1889 16.3789 11.06 16.443 10.8879C16.5117 10.7149 16.5111 10.5251 16.447 10.3481C15.9791 9.08222 15.1675 8.00391 14.1114 7.23169C13.0508 6.46039 11.8352 6.06438 10.5852 6.0809C10.2236 6.08724 9.95306 6.40375 9.96545 6.7914C9.97064 6.9803 10.0493 7.15949 10.1798 7.29226C10.3057 7.42594 10.4705 7.49531 10.644 7.49104Z" fill="white"/>
<path d="M19.5883 9.54871C18.8217 7.48077 17.5054 5.72414 15.7764 4.46676C14.0464 3.20444 12.0594 2.55879 10.0255 2.59001C9.851 2.58934 9.69247 2.66759 9.5786 2.80355C9.46472 2.93951 9.40156 3.11655 9.41128 3.30454C9.42919 3.69621 9.73085 3.99973 10.0934 3.99833C11.8493 3.96684 13.5749 4.53184 15.081 5.61867C16.5835 6.71135 17.7257 8.23621 18.3848 10.0281C18.5023 10.3535 18.8138 10.5421 19.1261 10.4789C19.1623 10.4716 19.1885 10.4612 19.2192 10.4499L19.2328 10.4471C19.3943 10.3837 19.5202 10.2607 19.5889 10.0876C19.6531 9.91553 19.6569 9.7248 19.5883 9.54871Z" fill="white"/>
</svg>
