<svg width="177" height="164" viewBox="0 0 177 164" fill="none" xmlns="http://www.w3.org/2000/svg">
<path d="M17 0H177V164H17V0Z" fill="white"/>
<rect x="56.5" y="42.167" width="81" height="6" fill="#E0E0E0"/>
<rect x="56.5" y="60.167" width="81" height="6" fill="#E0E0E0"/>
<rect x="56.5" y="78.167" width="81" height="6" fill="#E0E0E0"/>
<rect x="56.5" y="96.167" width="81" height="6" fill="#E0E0E0"/>
<rect y="120.645" width="74.3572" height="29.2655" fill="#E52713"/>
<path d="M24.72 131.612H27.528C28.44 131.612 29.232 131.78 29.904 132.116C30.576 132.452 31.092 132.932 31.452 133.556C31.812 134.18 31.992 134.916 31.992 135.764C31.992 137.156 31.588 138.212 30.78 138.932C29.972 139.644 28.844 140 27.396 140H24.72V131.612ZM27.42 138.74C28.396 138.74 29.144 138.48 29.664 137.96C30.192 137.432 30.456 136.7 30.456 135.764C30.456 135.196 30.34 134.696 30.108 134.264C29.876 133.824 29.544 133.484 29.112 133.244C28.68 132.996 28.168 132.872 27.576 132.872H26.244V138.74H27.42ZM37.4047 140.18C36.5647 140.18 35.8047 140 35.1247 139.64C34.4527 139.272 33.9207 138.756 33.5287 138.092C33.1447 137.428 32.9527 136.668 32.9527 135.812C32.9527 134.956 33.1447 134.196 33.5287 133.532C33.9207 132.868 34.4527 132.352 35.1247 131.984C35.8047 131.616 36.5647 131.432 37.4047 131.432C38.2367 131.432 38.9887 131.616 39.6607 131.984C40.3407 132.352 40.8727 132.868 41.2567 133.532C41.6487 134.196 41.8447 134.956 41.8447 135.812C41.8447 136.668 41.6487 137.428 41.2567 138.092C40.8727 138.748 40.3407 139.26 39.6607 139.628C38.9887 139.996 38.2367 140.18 37.4047 140.18ZM37.4047 138.8C37.9407 138.8 38.4287 138.68 38.8687 138.44C39.3087 138.192 39.6567 137.844 39.9127 137.396C40.1767 136.94 40.3087 136.412 40.3087 135.812C40.3087 135.22 40.1807 134.7 39.9247 134.252C39.6687 133.796 39.3207 133.444 38.8807 133.196C38.4407 132.948 37.9487 132.824 37.4047 132.824C36.8607 132.824 36.3647 132.948 35.9167 133.196C35.4767 133.444 35.1287 133.796 34.8727 134.252C34.6167 134.7 34.4887 135.22 34.4887 135.812C34.4887 136.412 34.6167 136.94 34.8727 137.396C35.1367 137.844 35.4887 138.192 35.9287 138.44C36.3767 138.68 36.8687 138.8 37.4047 138.8ZM47.1203 140.18C46.2403 140.18 45.4603 140.004 44.7803 139.652C44.1003 139.292 43.5723 138.784 43.1963 138.128C42.8203 137.464 42.6323 136.692 42.6323 135.812C42.6323 134.932 42.8203 134.164 43.1963 133.508C43.5723 132.844 44.1003 132.332 44.7803 131.972C45.4603 131.612 46.2403 131.432 47.1203 131.432C48.2803 131.432 49.2483 131.708 50.0243 132.26V133.712C49.3283 133.12 48.4043 132.824 47.2523 132.824C46.6363 132.824 46.0963 132.948 45.6323 133.196C45.1683 133.436 44.8083 133.78 44.5523 134.228C44.2963 134.676 44.1683 135.204 44.1683 135.812C44.1683 136.42 44.2963 136.948 44.5523 137.396C44.8163 137.844 45.1803 138.192 45.6443 138.44C46.1083 138.68 46.6443 138.8 47.2523 138.8C47.8443 138.8 48.3723 138.728 48.8363 138.584C49.3003 138.432 49.7283 138.192 50.1203 137.864V139.316C49.3843 139.892 48.3843 140.18 47.1203 140.18Z" fill="white"/>
</svg>
