<svg width="14" height="23" viewBox="0 0 14 23" fill="none" xmlns="http://www.w3.org/2000/svg">
<path d="M8.24556 22.9302H4.69166C4.55164 22.9302 4.413 22.9026 4.28364 22.8491C4.15429 22.7955 4.03675 22.7169 3.93775 22.6179C3.83874 22.5189 3.76021 22.4014 3.70663 22.2721C3.65305 22.1427 3.62547 22.0041 3.62547 21.864V13.9388H1.5642C1.28426 13.9299 1.01821 13.8148 0.820163 13.6167C0.622112 13.4187 0.506941 13.1526 0.498047 12.8727V9.31876C0.498047 9.03599 0.610375 8.76481 0.81032 8.56487C1.01027 8.36492 1.28144 8.25259 1.5642 8.25259H3.62547V6.54671C3.56774 5.01358 4.11685 3.51951 5.15365 2.38864C5.69261 1.86132 6.33225 1.44796 7.03443 1.17319C7.7366 0.898427 8.48694 0.767899 9.24065 0.789391H11.9416C12.2216 0.798285 12.4876 0.91347 12.6857 1.11152C12.8837 1.30957 12.9989 1.57561 13.0078 1.85556V5.01854C13.0078 5.30131 12.8955 5.57249 12.6955 5.77243C12.4956 5.97238 12.2244 6.08471 11.9416 6.08471H10.1291C9.88457 6.01992 9.62736 6.01992 9.38281 6.08471C9.33123 6.30683 9.33123 6.53783 9.38281 6.75995V8.43028H11.9061C12.0805 8.3818 12.2648 8.3818 12.4392 8.43028C12.6013 8.52392 12.736 8.65861 12.8296 8.82082C12.9232 8.98303 12.9724 9.16703 12.9722 9.3543V12.9082C12.9722 13.191 12.8599 13.4622 12.66 13.6621C12.46 13.862 12.1888 13.9744 11.9061 13.9744H9.38281V21.8996C9.38358 22.0444 9.35383 22.1877 9.2955 22.3203C9.23717 22.4528 9.15156 22.5716 9.04426 22.6688C8.93696 22.766 8.81039 22.8396 8.67277 22.8846C8.53515 22.9297 8.38959 22.9452 8.24556 22.9302ZM4.94043 21.6508H8.03231V13.3347C8.03231 13.2413 8.05071 13.1489 8.08643 13.0627C8.12215 12.9764 8.17449 12.8981 8.24049 12.8321C8.30649 12.7661 8.38486 12.7137 8.4711 12.678C8.55733 12.6423 8.64976 12.6239 8.7431 12.6239H11.6218V9.67415H8.7431C8.64976 9.67415 8.55733 9.65577 8.4711 9.62005C8.38486 9.58433 8.30649 9.53197 8.24049 9.46597C8.17449 9.39997 8.12215 9.32161 8.08643 9.23537C8.05071 9.14914 8.03231 9.05671 8.03231 8.96337V7.04426C7.98316 6.49989 8.13486 5.95634 8.45879 5.51608C8.68955 5.31034 8.95985 5.1538 9.25315 5.05604C9.54645 4.95827 9.85661 4.92133 10.1647 4.94746H11.7284V2.24649H9.2762C8.68769 2.20825 8.09788 2.29782 7.54726 2.50906C6.99665 2.7203 6.49827 3.04821 6.08635 3.47025C5.67444 3.8923 5.35872 4.39849 5.16092 4.95408C4.96312 5.50966 4.8879 6.10147 4.94043 6.68887V8.96337C4.94043 9.15188 4.86554 9.33267 4.73224 9.46597C4.59895 9.59927 4.41814 9.67415 4.22963 9.67415H1.84852V12.6239H4.22963C4.41814 12.6239 4.59895 12.6988 4.73224 12.8321C4.86554 12.9654 4.94043 13.1462 4.94043 13.3347V21.6508Z" fill="black" stroke="black" stroke-width="0.05" stroke-miterlimit="10"/>
</svg>
