<svg width="24" height="18" viewBox="0 0 24 18" fill="none" xmlns="http://www.w3.org/2000/svg">
<path d="M18.3654 1.17529H17.5835C16.8695 1.18101 16.1641 1.33205 15.5103 1.61922C14.8566 1.90639 14.2681 2.32367 13.7808 2.84563V2.31254C13.7568 2.11698 13.6658 1.93578 13.5232 1.79972C13.3807 1.66367 13.1955 1.58117 12.999 1.56622H9.12524C8.9358 1.57407 8.75567 1.65049 8.61838 1.78124C8.48109 1.91199 8.39598 2.08818 8.37891 2.277V16.4926C8.39664 16.678 8.48303 16.85 8.62112 16.975C8.7592 17.0999 8.93902 17.1687 9.12524 17.1679H13.3188C13.509 17.1696 13.6933 17.1021 13.8372 16.9778C13.9811 16.8535 14.0748 16.681 14.1007 16.4926V8.06987C14.0864 7.78689 14.1286 7.5039 14.2249 7.23743C14.3212 6.97096 14.4696 6.72635 14.6616 6.5179C14.8535 6.30945 15.085 6.14133 15.3426 6.02338C15.6002 5.90542 15.8788 5.83999 16.162 5.83091C16.4576 5.82667 16.7511 5.88102 17.0256 5.99082C17.3001 6.10061 17.5501 6.26368 17.7612 6.47061C17.9569 6.67788 18.1057 6.92476 18.1977 7.19454C18.2897 7.46432 18.3226 7.75071 18.2943 8.03433V16.2083C18.3105 16.4103 18.3981 16.5998 18.5414 16.7431C18.6846 16.8864 18.8742 16.9739 19.0762 16.9902H22.8788C23.0771 16.973 23.2623 16.8841 23.3997 16.7402C23.5371 16.5963 23.6172 16.4071 23.6252 16.2083V6.39953C23.6066 5.01361 23.0454 3.69022 22.062 2.71347C21.0786 1.73672 19.7514 1.18447 18.3654 1.17529ZM22.9499 16.3505H19.1117V8.17648C19.1347 7.79475 19.0805 7.4123 18.9522 7.05202C18.824 6.69174 18.6244 6.36102 18.3654 6.07968C17.9536 5.66727 17.4276 5.38781 16.8554 5.27738C16.2831 5.16696 15.6909 5.23065 15.1552 5.46022C14.6196 5.6898 14.165 6.07472 13.8503 6.56525C13.5356 7.05579 13.3753 7.62941 13.3899 8.21202V16.3505H9.16077V2.13485H12.9279V4.7292L13.923 3.69856C14.3367 3.14922 14.8741 2.70521 15.4916 2.40263C16.1091 2.10004 16.7893 1.94742 17.4769 1.95715H18.3654C18.9688 1.95708 19.5662 2.07705 20.1228 2.31009C20.6794 2.54313 21.1841 2.88458 21.6074 3.31455C22.0308 3.74452 22.3643 4.25443 22.5887 4.81457C22.8131 5.37471 22.9238 5.97389 22.9144 6.57723L22.9499 16.3505Z" fill="black" stroke="black" stroke-width="0.5" stroke-miterlimit="10"/>
<path d="M5.35884 1.38867H2.30248C2.15476 1.3886 2.00854 1.41823 1.8725 1.4758C1.73647 1.53338 1.6134 1.61772 1.51062 1.72382C1.40783 1.82991 1.32744 1.9556 1.27421 2.0934C1.22098 2.23119 1.196 2.37828 1.20077 2.52592V15.8531C1.20969 16.1519 1.33238 16.436 1.54375 16.6473C1.75512 16.8587 2.03923 16.9814 2.33802 16.9903H5.35884C5.65795 16.9909 5.94596 16.8771 6.16397 16.6723C6.38198 16.4675 6.5135 16.1872 6.53163 15.8886V2.52592C6.52238 2.22108 6.39475 1.93183 6.17581 1.71952C5.95686 1.50721 5.66382 1.38853 5.35884 1.38867ZM5.74977 15.8886C5.74533 15.9354 5.73166 15.9808 5.70956 16.0222C5.68746 16.0637 5.65736 16.1003 5.62101 16.1301C5.58466 16.1598 5.54277 16.1821 5.49777 16.1955C5.45277 16.209 5.40555 16.2134 5.35884 16.2085H2.33802C2.24021 16.2089 2.1458 16.1726 2.07343 16.1068C2.00106 16.041 1.95598 15.9505 1.94709 15.8531V2.52592C1.94668 2.42811 1.98296 2.33371 2.04875 2.26134C2.11454 2.18897 2.20507 2.14389 2.30248 2.135H5.35884C5.45981 2.14311 5.5546 2.1869 5.62623 2.25853C5.69786 2.33016 5.74165 2.42495 5.74977 2.52592V15.8886Z" fill="black" stroke="black" stroke-width="0.5" stroke-miterlimit="10"/>
</svg>
