<svg width="16" height="8" viewBox="0 0 16 8" fill="none" xmlns="http://www.w3.org/2000/svg">
<path fill-rule="evenodd" clip-rule="evenodd" d="M12.3942 0.44847L15.5564 3.64485C15.7505 3.841 15.7505 4.15901 15.5564 4.35516L12.3942 7.55154C12.2001 7.74768 11.8855 7.74768 11.6915 7.55154C11.4974 7.35539 11.4974 7.03738 11.6915 6.84123L14.0054 4.50227H0.298218V3.49774H14.0054L11.6915 1.15878C11.4974 0.962631 11.4974 0.644616 11.6915 0.44847C11.8855 0.252325 12.2001 0.252325 12.3942 0.44847Z" fill="#E52713"/>
<path fill-rule="evenodd" clip-rule="evenodd" d="M0.298137 4.50226V3.49774H14.0054L11.6914 1.15877C11.4973 0.962628 11.4973 0.644613 11.6914 0.448467C11.8854 0.252321 12.2001 0.252321 12.3941 0.448467L15.5563 3.64485C15.7504 3.84099 15.7504 4.15901 15.5563 4.35515L12.3941 7.55153C12.2001 7.74768 11.8854 7.74768 11.6914 7.55153C11.4973 7.35539 11.4973 7.03737 11.6914 6.84123L14.0054 4.50226H0.298137ZM13.2856 4.80362H0V3.19638H13.2856L11.4806 1.37187C11.1701 1.05803 11.1701 0.549208 11.4806 0.235375C11.7911 -0.0784583 12.2944 -0.0784583 12.6049 0.235375L15.7671 3.43175C16.0776 3.74559 16.0776 4.25441 15.7671 4.56825L12.6049 7.76463C12.2944 8.07846 11.7911 8.07846 11.4806 7.76463C11.1701 7.45079 11.1701 6.94197 11.4806 6.62813L13.2856 4.80362Z" fill="#E52713"/>
</svg>
