<svg width="24" height="21" viewBox="0 0 24 21" fill="none" xmlns="http://www.w3.org/2000/svg">
<path d="M18.5 19.5C19.8807 19.5 21 18.3807 21 17C21 15.6193 19.8807 14.5 18.5 14.5C17.1193 14.5 16 15.6193 16 17C16 18.3807 17.1193 19.5 18.5 19.5Z" stroke="black" stroke-width="2" stroke-linecap="round" stroke-linejoin="round"/>
<path d="M5.5 19.5C6.88071 19.5 8 18.3807 8 17C8 15.6193 6.88071 14.5 5.5 14.5C4.11929 14.5 3 15.6193 3 17C3 18.3807 4.11929 19.5 5.5 19.5Z" stroke="black" stroke-width="2" stroke-linecap="round" stroke-linejoin="round"/>
<path d="M16 6.5H20L23 9.5V14.5H16V6.5Z" stroke="black" stroke-width="2" stroke-linecap="round" stroke-linejoin="round"/>
<path d="M16 1.5H1V14.5H16V1.5Z" stroke="black" stroke-width="2" stroke-linecap="round" stroke-linejoin="round"/>
</svg>
