<svg width="21" height="19" viewBox="0 0 21 19" fill="none" xmlns="http://www.w3.org/2000/svg">
<path d="M19.595 7.24082H19.2688C19.0744 6.62792 18.8109 6.04339 18.466 5.48724L18.698 5.27726C18.9615 5.03891 19.1057 4.72111 19.1057 4.38061C19.1057 4.0401 18.9615 3.7223 18.698 3.48395L17.155 2.08789C16.8916 1.84387 16.5341 1.71334 16.1577 1.71334C15.7814 1.71334 15.4301 1.84387 15.1667 2.08789L14.9346 2.29787C14.3199 1.98574 13.6738 1.74172 12.9964 1.57147V1.27636C12.9964 0.572661 12.3629 0.00515747 11.5914 0.00515747H9.4086C8.63083 0.00515747 8.00358 0.578335 8.00358 1.27636V1.57147C7.32617 1.74739 6.68011 1.99142 6.06541 2.29787L5.83333 2.08789C5.56989 1.84387 5.21237 1.71334 4.83602 1.71334C4.45968 1.71334 4.10842 1.84387 3.84498 2.08789L2.30824 3.47828C2.0448 3.71663 1.90054 4.03443 1.90054 4.37493C1.90054 4.71543 2.0448 5.03324 2.30824 5.27159L2.54032 5.48156C2.19534 6.03771 1.92563 6.62224 1.73746 7.23515H1.41129C0.633513 7.24082 0 7.80832 0 8.51203V10.4869C0 11.1906 0.633513 11.7581 1.40502 11.7581H1.73118C1.91936 12.3654 2.18907 12.9556 2.53405 13.5117L2.30197 13.7217C2.03853 13.9601 1.89427 14.2779 1.89427 14.6184C1.89427 14.9589 2.03853 15.2767 2.30197 15.515L3.84498 16.9111C4.10842 17.1551 4.46595 17.2856 4.84229 17.2856C5.03047 17.2856 5.21237 17.2516 5.38172 17.1891C5.55108 17.1267 5.70161 17.0302 5.83333 16.9111L6.06541 16.7011C6.68011 17.0132 7.33244 17.2573 8.00358 17.4275V17.7226C8.00358 18.415 8.61828 18.9825 9.38351 18.9938H11.6102C12.3755 18.9825 12.9901 18.415 12.9901 17.7226V17.4275C13.6676 17.2573 14.3136 17.0132 14.9283 16.7011L15.1604 16.9111C15.4238 17.1551 15.7751 17.2856 16.1577 17.2856C16.5403 17.2856 16.8916 17.1551 17.1487 16.9111L18.6918 15.515C18.9552 15.2767 19.0995 14.9589 19.0995 14.6184C19.0995 14.2779 18.9552 13.9601 18.6918 13.7217L18.4597 13.5117C18.8047 12.9556 19.0681 12.371 19.2625 11.7581H19.5887C20.3665 11.7581 20.9937 11.185 20.9937 10.4869V8.51203C21 7.80832 20.3665 7.24082 19.595 7.24082ZM19.7455 10.4869C19.7455 10.5607 19.6765 10.6231 19.595 10.6231H18.7796C18.4848 10.6231 18.2339 10.8047 18.1649 11.0658C17.9642 11.8603 17.6255 12.6094 17.1425 13.2961C16.9857 13.5174 17.0233 13.8125 17.2303 13.9998L17.8074 14.5219C17.845 14.5559 17.8513 14.5957 17.8513 14.6184C17.8513 14.6411 17.845 14.6808 17.8074 14.7148L16.2643 16.1109C16.2267 16.1449 16.1891 16.1506 16.1577 16.1506C16.1263 16.1506 16.0887 16.1449 16.0511 16.1109L15.474 15.5888C15.267 15.4015 14.9409 15.3675 14.6962 15.5093C14.1631 15.8158 13.5923 16.0598 12.9964 16.2414V13.7898C14.9409 12.9726 16.2204 11.185 16.2204 9.22708C16.2204 7.56997 15.3109 6.01502 13.7867 5.07296C13.5547 4.93108 12.8396 4.48843 12.2249 4.81191C11.6165 5.12971 11.6729 5.87314 11.698 6.19094C11.698 6.21932 11.7043 6.24202 11.7043 6.25337V8.93198C11.7043 9.55056 11.1774 10.0727 10.5 10.1351C9.82258 10.0783 9.2957 9.55623 9.2957 8.93198V6.25904C9.2957 6.24202 9.2957 6.21932 9.30197 6.19094C9.32706 5.87314 9.38979 5.12971 8.78136 4.81191C8.1604 4.48843 7.44534 4.92541 7.21326 5.07296C5.68907 6.01502 4.77957 7.56997 4.77957 9.22708C4.77957 11.185 6.05914 12.9726 8.00358 13.7898V16.2414C7.40771 16.0598 6.83692 15.8158 6.30376 15.5093C6.20341 15.4526 6.08423 15.4242 5.97133 15.4242C5.80824 15.4242 5.64516 15.481 5.52599 15.5888L4.94893 16.1109C4.91129 16.1449 4.87366 16.1506 4.84229 16.1506C4.81093 16.1506 4.7733 16.1449 4.73566 16.1109L3.19265 14.7148C3.15502 14.6808 3.14875 14.6411 3.14875 14.6184C3.14875 14.5957 3.15502 14.5559 3.19265 14.5219L3.76971 13.9998C3.9767 13.8125 4.01434 13.5174 3.85753 13.2961C3.37455 12.6037 3.02957 11.8546 2.83513 11.0658C2.7724 10.8047 2.51523 10.6231 2.22043 10.6231H1.40502C1.32348 10.6231 1.25448 10.5607 1.25448 10.4869V8.51203C1.25448 8.43825 1.32348 8.37583 1.40502 8.37583H2.22043C2.51523 8.37583 2.76613 8.18855 2.83513 7.93318C3.02957 7.14435 3.37455 6.39524 3.85753 5.70289C4.01434 5.47589 3.9767 5.18646 3.76971 4.99918L3.19265 4.47708C3.15502 4.44303 3.14875 4.40331 3.14875 4.38061C3.14875 4.35791 3.15502 4.31818 3.19265 4.28413L4.73566 2.88807C4.7733 2.85402 4.81093 2.84835 4.84229 2.84835C4.87366 2.84835 4.91129 2.85402 4.94893 2.88807L5.52599 3.41018C5.73298 3.59745 6.05914 3.6315 6.30376 3.48963C7.069 3.05265 7.89695 2.74052 8.77509 2.5646C9.06362 2.50785 9.26434 2.27517 9.26434 2.00844V1.27069C9.26434 1.19691 9.33333 1.13449 9.41488 1.13449H11.5977C11.6792 1.13449 11.7482 1.19691 11.7482 1.27069V2.00844C11.7482 2.27517 11.9489 2.50217 12.2375 2.5646C13.1156 2.74052 13.9436 3.05265 14.7025 3.48963C14.9471 3.6315 15.2733 3.59745 15.4803 3.41018L16.0574 2.88807C16.095 2.85402 16.1326 2.84835 16.164 2.84835C16.1953 2.84835 16.233 2.85402 16.2706 2.88807L17.8136 4.28413C17.8513 4.31818 17.8575 4.35791 17.8575 4.38061C17.8575 4.40331 17.8513 4.44303 17.8136 4.47708L17.2366 4.99918C17.0296 5.18646 16.9919 5.48156 17.1487 5.70289C17.6317 6.38957 17.9704 7.13867 18.1712 7.93318C18.2339 8.18855 18.491 8.37583 18.7858 8.37583H19.6013C19.6828 8.37583 19.7518 8.43825 19.7518 8.51203V10.4869H19.7455Z" fill="#626262"/>
<path d="M19.595 7.24082H19.2688C19.0744 6.62792 18.8109 6.04339 18.466 5.48724L18.698 5.27726C18.9615 5.03891 19.1057 4.72111 19.1057 4.38061C19.1057 4.0401 18.9615 3.7223 18.698 3.48395L17.155 2.08789C16.8916 1.84387 16.534 1.71334 16.1577 1.71334C15.7814 1.71334 15.4301 1.84387 15.1667 2.08789L14.9346 2.29787C14.3199 1.98574 13.6738 1.74172 12.9964 1.57147V1.27636C12.9964 0.572661 12.3629 0.00515747 11.5914 0.00515747H9.4086C8.63082 0.00515747 8.00358 0.578335 8.00358 1.27636V1.57147C7.32616 1.74739 6.68011 1.99142 6.06541 2.29787L5.83333 2.08789C5.56989 1.84387 5.21237 1.71334 4.83602 1.71334C4.45968 1.71334 4.10842 1.84387 3.84498 2.08789L2.30824 3.47828C2.0448 3.71663 1.90054 4.03443 1.90054 4.37493C1.90054 4.71543 2.0448 5.03323 2.30824 5.27159L2.54032 5.48156C2.19534 6.03771 1.92563 6.62224 1.73746 7.23515H1.41129C0.633513 7.24082 0 7.80832 0 8.51203V10.4869C0 11.1906 0.633513 11.7581 1.40502 11.7581H1.73118C1.91935 12.3654 2.18907 12.9556 2.53405 13.5117L2.30197 13.7217C2.03853 13.9601 1.89427 14.2779 1.89427 14.6184C1.89427 14.9589 2.03853 15.2767 2.30197 15.515L3.84498 16.9111C4.10842 17.1551 4.46595 17.2856 4.84229 17.2856C5.03047 17.2856 5.21237 17.2516 5.38172 17.1891C5.55107 17.1267 5.70161 17.0302 5.83333 16.9111L6.06541 16.7011C6.68011 17.0132 7.33244 17.2572 8.00358 17.4275V17.7226C8.00358 18.415 8.61828 18.9825 9.38351 18.9938C9.38978 18.9938 9.40233 18.9938 9.4086 18.9938H11.5914C11.5977 18.9938 11.6102 18.9938 11.6165 18.9938C12.3817 18.9825 12.9964 18.415 12.9964 17.7226V17.4275C13.6738 17.2572 14.3199 17.0132 14.9346 16.7011L15.1667 16.9111C15.4301 17.1551 15.7814 17.2856 16.164 17.2856C16.5466 17.2856 16.8978 17.1551 17.155 16.9111L18.698 15.515C18.9615 15.2767 19.1057 14.9589 19.1057 14.6184C19.1057 14.2779 18.9615 13.9601 18.698 13.7217L18.466 13.5117C18.8109 12.9556 19.0744 12.371 19.2688 11.7581H19.595C20.3728 11.7581 21 11.185 21 10.4869V8.51203C21 7.80832 20.3665 7.24082 19.595 7.24082ZM12.1496 12.8818C11.905 12.9669 11.7419 13.1769 11.7419 13.4153V17.7283C11.7419 17.8021 11.6729 17.8645 11.5914 17.8645H9.4086C9.32706 17.8645 9.25806 17.8021 9.25806 17.7283V13.4153C9.25806 13.1769 9.09498 12.9669 8.85036 12.8818C7.16308 12.3143 6.03405 10.8501 6.03405 9.23276C6.03405 7.9502 6.74283 6.74709 7.92204 6.01501C7.97222 5.98096 8.0224 5.95259 8.06631 5.93556C8.06631 6.00934 8.06004 6.07744 8.05376 6.11716C8.04749 6.17392 8.04749 6.21932 8.04749 6.26472V8.94333C8.04749 10.1748 9.10753 11.202 10.4624 11.2814C10.4875 11.2814 10.5188 11.2814 10.5439 11.2814C11.8987 11.202 12.9588 10.1748 12.9588 8.94333V6.26472C12.9588 6.21932 12.9525 6.17392 12.9525 6.11716C12.9525 6.08311 12.9462 6.00934 12.94 5.93556C12.9839 5.95826 13.0278 5.98096 13.078 6.01501C14.2634 6.74709 14.9659 7.9502 14.9659 9.23276C14.9659 10.8445 13.8369 12.3143 12.1496 12.8818ZM19.7455 10.4869C19.7455 10.5607 19.6765 10.6231 19.595 10.6231H18.7796C18.4848 10.6231 18.2339 10.8047 18.1649 11.0658C17.9642 11.8603 17.6254 12.6094 17.1425 13.2961C16.9857 13.5174 17.0233 13.8125 17.2303 13.9998L17.8073 14.5219C17.845 14.5559 17.8513 14.5957 17.8513 14.6184C17.8513 14.6411 17.845 14.6808 17.8073 14.7148L16.2643 16.1109C16.2267 16.1449 16.1891 16.1506 16.1577 16.1506C16.1263 16.1506 16.0887 16.1449 16.0511 16.1109L15.474 15.5888C15.267 15.4015 14.9409 15.3675 14.6962 15.5093C14.1631 15.8158 13.5923 16.0598 12.9964 16.2414V13.7898C14.9409 12.9726 16.2204 11.185 16.2204 9.22708C16.2204 7.56997 15.3109 6.01501 13.7867 5.07296C13.5547 4.93108 12.8396 4.48843 12.2249 4.81191C11.6165 5.12971 11.6729 5.87314 11.698 6.19094C11.698 6.21932 11.7043 6.24202 11.7043 6.25337V8.93198C11.7043 9.55056 11.1774 10.0727 10.5 10.1351C9.82258 10.0783 9.2957 9.55623 9.2957 8.93198V6.25904C9.2957 6.24202 9.2957 6.21932 9.30197 6.19094C9.32706 5.87314 9.38978 5.12971 8.78136 4.81191C8.16039 4.48843 7.44534 4.92541 7.21326 5.07296C5.68907 6.01501 4.77957 7.56997 4.77957 9.22708C4.77957 11.185 6.05914 12.9726 8.00358 13.7898V16.2414C7.40771 16.0598 6.83692 15.8158 6.30376 15.5093C6.2034 15.4526 6.08423 15.4242 5.97133 15.4242C5.80824 15.4242 5.64516 15.481 5.52599 15.5888L4.94892 16.1109C4.91129 16.1449 4.87366 16.1506 4.84229 16.1506C4.81093 16.1506 4.7733 16.1449 4.73566 16.1109L3.19265 14.7148C3.15502 14.6808 3.14875 14.6411 3.14875 14.6184C3.14875 14.5957 3.15502 14.5559 3.19265 14.5219L3.76971 13.9998C3.9767 13.8125 4.01434 13.5174 3.85753 13.2961C3.37455 12.6037 3.02957 11.8546 2.83513 11.0658C2.7724 10.8047 2.51523 10.6231 2.22043 10.6231H1.40502C1.32348 10.6231 1.25448 10.5607 1.25448 10.4869V8.51203C1.25448 8.43825 1.32348 8.37583 1.40502 8.37583H2.22043C2.51523 8.37583 2.76613 8.18855 2.83513 7.93318C3.02957 7.14435 3.37455 6.39524 3.85753 5.70289C4.01434 5.47589 3.9767 5.18646 3.76971 4.99918L3.19265 4.47708C3.15502 4.44303 3.14875 4.40331 3.14875 4.38061C3.14875 4.35791 3.15502 4.31818 3.19265 4.28413L4.73566 2.88807C4.7733 2.85402 4.81093 2.84835 4.84229 2.84835C4.87366 2.84835 4.91129 2.85402 4.94892 2.88807L5.52599 3.41018C5.73297 3.59745 6.05914 3.6315 6.30376 3.48963C7.069 3.05265 7.89695 2.74052 8.77509 2.5646C9.06362 2.50785 9.26434 2.27517 9.26434 2.00844V1.27069C9.26434 1.19691 9.33333 1.13449 9.41488 1.13449H11.5977C11.6792 1.13449 11.7482 1.19691 11.7482 1.27069V2.00844C11.7482 2.27517 11.9489 2.50217 12.2375 2.5646C13.1156 2.74052 13.9435 3.05265 14.7025 3.48963C14.9471 3.6315 15.2733 3.59745 15.4803 3.41018L16.0573 2.88807C16.095 2.85402 16.1326 2.84835 16.164 2.84835C16.1953 2.84835 16.233 2.85402 16.2706 2.88807L17.8136 4.28413C17.8513 4.31818 17.8575 4.35791 17.8575 4.38061C17.8575 4.40331 17.8513 4.44303 17.8136 4.47708L17.2366 4.99918C17.0296 5.18646 16.9919 5.48156 17.1487 5.70289C17.6317 6.38957 17.9704 7.13867 18.1711 7.93318C18.2339 8.18855 18.491 8.37583 18.7858 8.37583H19.6013C19.6828 8.37583 19.7518 8.43825 19.7518 8.51203V10.4869H19.7455Z" fill="#626262"/>
</svg>
