<svg width="25" height="26" viewBox="0 0 25 26" fill="none" xmlns="http://www.w3.org/2000/svg">
<path d="M12.5 0.500244C5.60741 0.500244 0 6.10766 0 13.0002C0 19.8928 5.60741 25.5002 12.5 25.5002C19.3926 25.5002 25 19.8928 25 13.0002C25 6.10766 19.3926 0.500244 12.5 0.500244ZM11.7676 6.6358C10.6533 6.58793 9.55029 6.43134 8.49705 6.1767C8.66528 5.77807 8.84781 5.39526 9.04465 5.03249C9.85222 3.54437 10.8437 2.5001 11.7676 2.12187V6.6358ZM11.7676 8.10179V12.2678H7.1928C7.25727 10.6418 7.53441 9.02762 7.99274 7.55934C9.20734 7.86528 10.4824 8.05048 11.7676 8.10179ZM11.7676 13.7327V17.8987C10.4824 17.95 9.20734 18.1352 7.99274 18.4411C7.53441 16.9729 7.25727 15.3587 7.1928 13.7327H11.7676ZM11.7676 19.3647V23.8786C10.8437 23.5004 9.85222 22.4561 9.04465 20.968C8.84781 20.6052 8.66528 20.2224 8.49705 19.8238C9.55029 19.5692 10.6531 19.4126 11.7676 19.3647ZM13.2324 19.3647C14.3467 19.4126 15.4497 19.5692 16.503 19.8238C16.3347 20.2224 16.1522 20.6052 15.9554 20.968C15.1478 22.4561 14.1563 23.5004 13.2324 23.8786V19.3647ZM13.2324 17.8987V13.7327H17.8072C17.7427 15.3587 17.4656 16.9729 17.0073 18.4411C15.7927 18.1352 14.5176 17.95 13.2324 17.8987ZM13.2324 12.2678V8.10179C14.5176 8.05048 15.7927 7.86528 17.0073 7.55934C17.4656 9.02762 17.7427 10.6418 17.8072 12.2678H13.2324ZM13.2324 6.6358V2.12187C14.1563 2.5001 15.1478 3.54437 15.9554 5.03249C16.1522 5.39526 16.3347 5.77807 16.503 6.1767C15.4497 6.43134 14.3467 6.58793 13.2324 6.6358ZM17.2428 4.33382C16.876 3.65786 16.4776 3.062 16.0576 2.5537C17.522 3.0538 18.8486 3.85394 19.9642 4.88009C19.3279 5.22093 18.6422 5.51695 17.9209 5.76434C17.7162 5.26728 17.49 4.78911 17.2428 4.33382ZM7.75719 4.33382C7.50999 4.78911 7.28378 5.26728 7.07912 5.76434C6.35777 5.51695 5.67207 5.22074 5.03578 4.88009C6.15139 3.85394 7.47795 3.0538 8.94241 2.5537C8.52242 3.062 8.12416 3.65767 7.75719 4.33382ZM6.5836 7.14106C6.08368 8.74037 5.78976 10.4839 5.72643 12.2678H1.48983C1.64661 9.88726 2.56081 7.71021 3.99437 5.9772C4.78992 6.43343 5.6612 6.82368 6.5836 7.14106ZM5.72643 13.7327C5.78976 15.5168 6.08368 17.2601 6.5836 18.8594C5.6612 19.1768 4.78992 19.5671 3.99437 20.0233C2.56081 18.2903 1.64661 16.1132 1.48983 13.7327H5.72643ZM7.07912 20.2362C7.28378 20.7332 7.50999 21.2114 7.75719 21.6667C8.12416 22.3426 8.52242 22.9385 8.94241 23.4468C7.47795 22.9467 6.15139 22.1466 5.03597 21.1204C5.67188 20.7797 6.35777 20.4835 7.07912 20.2362ZM17.2428 21.6667C17.49 21.2114 17.7162 20.7332 17.9209 20.2362C18.6422 20.4835 19.3279 20.7797 19.9642 21.1204C18.8486 22.1466 17.522 22.9467 16.0576 23.4468C16.4776 22.9385 16.8758 22.3428 17.2428 21.6667ZM18.4164 18.8594C18.9163 17.2601 19.2102 15.5166 19.2736 13.7327H23.5102C23.3534 16.1132 22.4392 18.2903 21.0056 20.0233C20.2101 19.5671 19.3388 19.1768 18.4164 18.8594ZM19.2736 12.2678C19.2102 10.4837 18.9163 8.74037 18.4164 7.14106C19.3388 6.82368 20.2101 6.43343 21.0056 5.9772C22.4392 7.71021 23.3534 9.88726 23.5102 12.2678H19.2736Z" fill="black"/>
</svg>
