<svg width="29" height="20" viewBox="0 0 29 20" fill="none" xmlns="http://www.w3.org/2000/svg">
<path d="M25.0482 17.3438L18.46 10.9045L17.3653 11.9756C16.6009 12.7275 15.5824 13.1423 14.5 13.1423C13.4177 13.1423 12.3993 12.7276 11.6334 11.9743L25.0482 17.3438ZM25.0482 17.3438H3.95176L10.54 10.9045L11.6332 11.9741L25.0482 17.3438ZM12.8905 10.7296L3.95057 1.98218H25.0494L16.1081 10.731L16.1079 10.7312C15.6785 11.1535 15.1079 11.3862 14.5 11.3862C13.8922 11.3862 13.3215 11.1535 12.8906 10.7297L12.8905 10.7296ZM25.627 0.226012H3.37305C2.00806 0.226012 0.9 1.32045 0.9 2.66026V16.6658C0.9 18.0136 2.0163 19.1 3.37305 19.1H25.627C26.9803 19.1 28.1 18.0182 28.1 16.6658V2.66026C28.1 1.32291 26.9963 0.226012 25.627 0.226012ZM2.68203 16.1114V3.21573L9.27538 9.66712L2.68203 16.1114ZM26.318 3.21573V16.1114L19.7246 9.66712L26.318 3.21573Z" fill="black" stroke="black" stroke-width="0.2"/>
</svg>
