<svg width="25" height="27" viewBox="0 0 25 27" fill="none" xmlns="http://www.w3.org/2000/svg">
<path d="M14.7778 16.5911C14.794 16.596 14.8095 16.6003 14.8245 16.6045C14.8532 16.6125 14.8802 16.6201 14.9078 16.6301L14.9078 16.6301C14.9498 16.6454 14.9917 16.6606 15.0389 16.6748L16.0433 15.0576C16.4085 14.4695 16.907 14.0958 17.4871 13.9818C18.0726 13.8668 18.6759 14.024 19.2326 14.4368L14.7778 16.5911ZM14.7778 16.5911C14.607 16.5425 14.4469 16.4918 14.3134 16.4359L14.7778 16.5911ZM18.9343 21.7941C18.9993 21.7872 19.0632 21.7747 19.1271 21.7621C19.7551 21.6387 20.1896 21.3304 20.5033 20.7876C20.7086 20.3894 20.9433 20.0265 21.1615 19.6903L18.9343 21.7941ZM18.9343 21.7941C17.65 21.9584 16.3582 21.6607 15.3768 21.3901M18.9343 21.7941L4.21012 6.65279M20.327 20.6908C20.5369 20.2843 20.7759 19.915 20.9928 19.5808L20.9936 19.5795L21.0728 19.4594C21.073 19.4592 21.0732 19.4589 21.0733 19.4587C21.1712 19.3078 21.2612 19.1635 21.3497 19.0155L21.3508 18.9727L21.3551 18.8148L21.4691 18.7924C21.5472 18.6245 21.5581 18.4951 21.5291 18.389C21.495 18.2643 21.3936 18.1273 21.1703 17.9782L21.1658 17.9752L21.1658 17.9751L18.2238 15.8954L18.2148 15.889L18.2149 15.8887C18.1098 15.8054 17.951 15.7197 17.8099 15.7474C17.75 15.7592 17.6871 15.7952 17.623 15.8557C17.5593 15.9158 17.504 15.9911 17.4592 16.0632L16.2971 17.9343L16.2953 17.9372C16.2244 18.0514 15.9822 18.4416 15.4715 18.542C15.2695 18.5817 15.062 18.5647 14.848 18.5007M20.327 20.6908L21.6044 18.9696C21.8618 18.5024 21.7697 18.1392 21.2808 17.8128L18.3388 15.733C18.226 15.6437 18.0034 15.5056 17.7692 15.5516C17.551 15.5945 17.388 15.7966 17.2884 15.957L16.1264 17.8281C16.06 17.9351 15.8566 18.2625 15.4308 18.3462C15.2658 18.3786 15.0914 18.3659 14.9024 18.3092C14.8996 18.3083 14.8965 18.3076 14.8932 18.3067C14.8827 18.3041 14.8704 18.301 14.8604 18.2939M20.327 20.6908C20.0425 21.181 19.6574 21.4541 19.0864 21.5663C19.0211 21.5791 18.9658 21.5898 18.911 21.5957L18.911 21.5956L18.9068 21.5962C17.6654 21.755 16.4075 21.4677 15.4294 21.198M20.327 20.6908L15.4294 21.198M14.848 18.5007C14.8474 18.5005 14.8469 18.5004 14.8463 18.5002C14.848 18.5007 14.8494 18.5011 14.848 18.5007ZM14.848 18.5007C14.8475 18.5006 14.8466 18.5004 14.8453 18.5C14.8434 18.4996 14.8402 18.4988 14.8363 18.4977C14.8332 18.4969 14.8296 18.4958 14.8258 18.4947C14.8164 18.4919 14.8017 18.4871 14.7847 18.4791M14.7847 18.4791L14.7926 18.4814L14.8405 18.4958L14.8481 18.4943L14.8893 18.4862C14.8747 18.4891 14.8613 18.49 14.8494 18.4898C14.8347 18.4896 14.8224 18.4877 14.8135 18.4858C14.8058 18.4842 14.7989 18.4823 14.7929 18.4803C14.7885 18.4788 14.7846 18.4774 14.7813 18.476C14.7795 18.4753 14.7779 18.4745 14.7764 18.4739C14.7709 18.4714 14.7661 18.469 14.7623 18.4669C14.7605 18.4658 14.7588 18.4649 14.7574 18.464L14.751 18.46L14.7481 18.4581L14.7468 18.4572L14.7462 18.4567L14.7458 18.4565L14.7457 18.4564L14.7456 18.4563L14.7963 18.3846L14.8165 18.3561L14.8385 18.325L14.8519 18.3061L14.8604 18.2939M14.7847 18.4791C14.7834 18.4785 14.7822 18.4779 14.7809 18.4773C14.7749 18.4743 14.7686 18.4709 14.7622 18.4671C14.7567 18.4638 14.7511 18.4602 14.7455 18.4563L14.7964 18.3843L14.8165 18.356L14.8385 18.325L14.8519 18.306L14.8604 18.2939M14.7847 18.4791L14.7808 18.4779L14.7705 18.4748L14.7607 18.4707C14.6385 18.4196 14.4877 18.3715 14.3192 18.3235L14.3164 18.3227L14.3164 18.3227L14.3129 18.3217C14.114 18.262 13.905 18.1993 13.6835 18.108L13.6825 18.1076C12.0604 17.4283 10.5129 16.4457 8.95861 15.0915M14.8604 18.2939C14.8604 18.2939 14.8539 18.2894 14.8486 18.2904L14.8368 18.2869C14.7033 18.2309 14.5432 18.1803 14.3724 18.1317C14.1715 18.0714 13.9706 18.0111 13.7586 17.9237C12.1566 17.2528 10.6248 16.2806 9.08197 14.9351M8.95861 15.0915L8.96705 15.0974L9.08197 14.9351M8.95861 15.0915C8.9572 15.0902 8.9558 15.089 8.95439 15.0878C8.95319 15.0867 8.95199 15.0857 8.95079 15.0846L8.981 15.0502L9.08197 14.9351M8.95861 15.0915L8.95406 15.0882L8.94449 15.0815L8.93575 15.0737C8.06426 14.2928 7.45171 13.6066 6.96465 12.8497M9.08197 14.9351L9.06898 14.9259C8.20433 14.1512 7.60434 13.477 7.1292 12.7372M6.96465 12.8497L6.96901 12.8556L7.1292 12.7372M6.96465 12.8497C6.96365 12.8482 6.96266 12.8466 6.96167 12.8451C6.96133 12.8446 6.961 12.8441 6.96067 12.8435L6.9819 12.8301L7.1292 12.7372M6.96465 12.8497L6.96135 12.8453L6.95064 12.831L6.94261 12.8151L6.92489 12.78M7.1292 12.7372L7.12153 12.727L7.10268 12.6896M6.92489 12.78C6.9253 12.7808 6.92571 12.7815 6.92611 12.7823L7.10268 12.6896M6.92489 12.78L6.92376 12.7778L7.10268 12.6896M6.92489 12.78C6.84264 12.6264 6.7505 12.4188 6.72726 12.1701C6.70381 11.9192 6.75161 11.6385 6.92844 11.3405M7.10268 12.6896C6.94891 12.403 6.78595 11.9657 7.10733 11.4332M7.10733 11.4332L6.91948 11.3617C6.9223 11.3542 6.92533 11.3471 6.92844 11.3405M7.10733 11.4332C7.11257 11.4192 7.12134 11.4077 7.12726 11.3999C7.12938 11.3971 7.13113 11.3948 7.13223 11.3931M7.10733 11.4332L6.93525 11.3291C6.93296 11.3329 6.93069 11.3367 6.92844 11.3405M6.92844 11.3405C6.93847 11.3192 6.94934 11.3028 6.9566 11.2925C6.95995 11.2878 6.96316 11.2835 6.96532 11.2806M7.13223 11.3931L6.96146 11.2869L6.96147 11.2869M7.13223 11.3931L7.13638 11.3864C7.4273 10.9772 7.6799 10.5641 7.97532 10.0811L7.99007 10.057L8.18513 9.74288L8.28474 9.5825C8.59601 9.08131 8.52451 8.73746 8.03742 8.39313L6.58915 7.36932C6.50356 7.30401 6.41914 7.24433 6.33472 7.18465L6.33469 7.18463C6.2491 7.11931 6.16467 7.05963 6.08025 6.99995L6.08023 6.99994C5.73368 6.74534 5.43494 6.53415 5.13321 6.33528L5.11373 6.32151M7.13223 11.3931L6.96147 11.2869M6.96532 11.2806L6.96147 11.2869M6.96532 11.2806C6.96544 11.2805 6.96555 11.2804 6.96565 11.2802C6.96622 11.2795 6.9667 11.2788 6.96709 11.2783L6.96748 11.2778C6.96859 11.2764 6.96837 11.2766 6.96786 11.2773L6.96783 11.2774C6.96762 11.2777 6.96687 11.2787 6.96577 11.2803C6.96463 11.2819 6.96313 11.2842 6.96147 11.2869M6.96532 11.2806L6.96561 11.2802L6.97209 11.2698L6.9724 11.27C7.25934 10.8664 7.50883 10.4584 7.8057 9.973L7.8186 9.9519L7.8193 9.95075L7.8193 9.95076L7.91684 9.79372L8.01437 9.63667L8.11397 9.47629C8.25812 9.2442 8.28899 9.08668 8.26421 8.96755C8.23944 8.84842 8.14806 8.71492 7.9225 8.55547L6.47423 7.53166L6.46817 7.52738L6.46825 7.52727C6.38606 7.46455 6.30461 7.40694 6.21977 7.34697L6.21371 7.34269L6.2138 7.34258C6.1316 7.27986 6.05016 7.22226 5.96531 7.16228L5.96228 7.16014L5.9623 7.16011C5.61743 6.90675 5.32167 6.69771 5.02377 6.50136L5.01823 6.49771L5.01829 6.49762L4.99881 6.48385L5.11373 6.32151M5.11373 6.32151L4.99881 6.48385C4.86687 6.39058 4.71017 6.32299 4.57659 6.34923C4.47323 6.36954 4.3414 6.45569 4.21012 6.65279M5.11373 6.32151C4.97085 6.2205 4.75409 6.11055 4.53587 6.15342C4.36024 6.18793 4.18856 6.3214 4.04095 6.54402L2.88718 8.40177C2.62986 8.81609 2.53563 9.26877 2.5962 9.77318C2.70463 10.6143 3.03416 11.4531 3.6601 12.4918C4.70272 14.229 6.04837 15.7717 7.90766 17.3601C10.1583 19.2589 12.6736 20.6187 15.3768 21.3901M4.21012 6.65279L3.05794 8.50798C2.82576 8.88182 2.73981 9.28871 2.79511 9.75062C2.89891 10.5547 3.21456 11.3664 3.83168 12.3904L3.83187 12.3907C4.86113 14.1056 6.19115 15.632 8.03683 17.2088C10.2663 19.0896 12.7558 20.4349 15.4294 21.198M4.21012 6.65279L15.4294 21.198M15.3768 21.3901L15.4302 21.1983C15.4299 21.1982 15.4296 21.1981 15.4294 21.198M15.3768 21.3901L15.4285 21.1978C15.4288 21.1979 15.4291 21.1979 15.4294 21.198M19.3497 14.276C18.7554 13.8359 18.0958 13.6584 17.4464 13.786C16.802 13.9126 16.2607 14.3263 15.8725 14.9514L14.9513 16.4346C14.9225 16.4252 14.8916 16.4165 14.8664 16.4094C14.8538 16.4059 14.8427 16.4027 14.8338 16.4001L14.8338 16.4001L14.8311 16.3993C14.6625 16.3513 14.5117 16.3032 14.3895 16.2521L14.3895 16.2521C12.963 15.6551 11.588 14.7744 10.1946 13.561C9.60363 13.0332 9.17643 12.5772 8.82272 12.1081C9.02886 11.7961 9.2207 11.4804 9.40382 11.1789L9.40385 11.1789L9.40571 11.1757L9.47366 11.059L9.61744 10.8275L9.6176 10.8275L9.62181 10.82C9.64895 10.7718 9.67631 10.7292 9.70633 10.6825C9.7228 10.6569 9.74007 10.63 9.75854 10.6002C10.1654 9.94512 10.3019 9.24943 10.1662 8.59678C10.0305 7.94414 9.62674 7.35459 8.99006 6.90451L7.5353 5.8761C7.3726 5.76109 7.20545 5.64292 7.05035 5.52853C6.73646 5.29702 6.39432 5.05019 6.03828 4.82268C5.44975 4.41293 4.80148 4.25463 4.16697 4.3793C3.53116 4.50422 2.99162 4.89702 2.59858 5.50582L2.59854 5.50579L2.59636 5.50933L1.44115 7.38444C1.44109 7.38454 1.44102 7.38464 1.44096 7.38474C0.960277 8.15887 0.772897 9.02529 0.885305 9.95711L0.885299 9.95711L0.885498 9.95866C1.07048 11.3973 1.73121 12.6262 2.20298 13.4197L2.20328 13.4202C3.35407 15.3428 4.83093 17.0317 6.83728 18.7405L6.83782 18.7409C9.28544 20.8107 12.0246 22.2865 14.9693 23.1299L14.971 23.1304C16.1053 23.4441 17.6243 23.7833 19.1929 23.5836L19.1946 23.5834L19.1977 23.5829C19.2926 23.57 19.3944 23.5562 19.4907 23.5373C20.5998 23.3194 21.4484 22.7117 22.0036 21.7327L22.0139 21.716L22.0556 21.649L22.0516 21.6301C22.1764 21.3861 22.3263 21.1512 22.4895 20.8954C22.5075 20.8671 22.5257 20.8385 22.5441 20.8097L22.5453 20.8078L22.5897 20.7363C22.7697 20.4614 22.9142 20.2365 23.039 20.0203C23.4124 19.3866 23.5469 18.6972 23.4079 18.0285C23.2673 17.3526 22.8622 16.7735 22.2542 16.3437C22.2541 16.3437 22.2541 16.3436 22.2541 16.3436L19.3497 14.276Z" fill="black" stroke="black" stroke-width="0.4"/>
<path d="M18.7099 11.9214L18.7266 11.9181L18.7426 11.912C18.9833 11.8201 19.1771 11.633 19.2732 11.3839C19.373 11.1382 19.3707 10.8704 19.2792 10.6245L19.2792 10.6245L19.2787 10.6231C18.7145 9.13941 17.7353 7.87453 16.4607 6.96853L16.4602 6.96822C15.1796 6.06288 13.7087 5.59637 12.1949 5.61581L12.1949 5.61581L12.194 5.61582C11.6455 5.62517 11.253 6.09091 11.2706 6.63143C11.2783 6.89974 11.3928 7.15242 11.5809 7.33917C11.7672 7.53062 12.0143 7.6325 12.2748 7.6265C13.3727 7.60821 14.4566 7.94787 15.4033 8.61709C16.344 9.28205 17.0684 10.2165 17.4845 11.3149C17.6546 11.7717 18.1128 12.0504 18.5845 11.9578C18.6366 11.9475 18.678 11.9328 18.709 11.9216L18.7099 11.9214Z" fill="black" stroke="black" stroke-width="0.4"/>
<path d="M11.6242 3.63484L11.6242 3.63486L11.6269 3.63481C13.646 3.59962 15.6332 4.23088 17.3707 5.44965C19.1034 6.67458 20.4212 8.38416 21.182 10.3948C21.3522 10.8515 21.8103 11.1302 22.282 11.0375C22.3341 11.0273 22.3755 11.0125 22.4064 11.0013L22.4073 11.0011L22.4241 10.9978L22.44 10.9917C22.6806 10.8999 22.8696 10.7199 22.9711 10.4713L22.9711 10.4713L22.9727 10.4673C23.0644 10.2281 23.0714 9.95889 22.9714 9.70793C22.056 7.30863 20.4839 5.26878 18.4179 3.80828C16.3506 2.34206 13.9733 1.59024 11.5383 1.62619C11.2722 1.62578 11.0324 1.74288 10.8635 1.93897C10.6979 2.13113 10.605 2.38282 10.6193 2.65091L10.8194 2.64237L10.6192 2.64969C10.645 3.19741 11.0824 3.63688 11.6242 3.63484Z" fill="black" stroke="black" stroke-width="0.4"/>
</svg>
