<svg width="21" height="20" viewBox="0 0 21 20" fill="none" xmlns="http://www.w3.org/2000/svg">
<path d="M17.9228 11.0401C17.7027 11.0401 17.4725 10.9698 17.2524 10.9196C16.807 10.8197 16.369 10.6889 15.9416 10.5282C15.4774 10.3588 14.9671 10.3676 14.509 10.5529C14.0509 10.7382 13.6773 11.0869 13.4601 11.5318L13.2399 11.9935C12.2682 11.4407 11.3704 10.7662 10.5683 9.98623C9.79068 9.18169 9.11821 8.28122 8.56707 7.30651L9.02735 7.09574C9.47099 6.87787 9.81862 6.50312 10.0033 6.04362C10.1881 5.58411 10.1968 5.07232 10.028 4.60671C9.86906 4.17418 9.7387 3.73162 9.63773 3.28191C9.5877 3.06111 9.54767 2.83027 9.51766 2.60947C9.39614 1.90252 9.02698 1.26232 8.47664 0.804157C7.9263 0.345992 7.23095 0.0999715 6.51581 0.1104H3.50397C3.08095 0.109845 2.6626 0.19897 2.27633 0.371933C1.89006 0.544897 1.5446 0.797792 1.26259 1.11404C0.974734 1.43887 0.760397 1.82236 0.634308 2.23816C0.508219 2.65395 0.473365 3.0922 0.532142 3.52278C1.07606 7.70008 2.97885 11.5807 5.94546 14.5628C8.91863 17.5384 12.7875 19.447 16.9522 19.9925C17.0821 20.0025 17.2126 20.0025 17.3425 19.9925C18.0803 19.9936 18.7927 19.7221 19.3437 19.2298C19.659 18.9469 19.9111 18.6004 20.0836 18.213C20.256 17.8255 20.3449 17.4059 20.3443 16.9816V13.9707C20.3389 13.2772 20.095 12.6069 19.6538 12.0729C19.2126 11.5389 18.6012 11.1741 17.9228 11.0401ZM18.4131 17.0619C18.4128 17.202 18.3832 17.3404 18.3264 17.4683C18.2695 17.5962 18.1866 17.7108 18.0829 17.8046C17.9732 17.9048 17.8427 17.9793 17.7008 18.0227C17.5589 18.0661 17.4092 18.0773 17.2624 18.0555C13.5284 17.5664 10.0582 15.8595 7.38635 13.1979C4.71218 10.5156 2.99568 7.02285 2.50335 3.26183C2.48161 3.11463 2.49278 2.96443 2.53605 2.82209C2.57931 2.67975 2.65359 2.54885 2.7535 2.43885C2.84818 2.33362 2.96401 2.2497 3.09336 2.19261C3.22271 2.13552 3.36265 2.10657 3.50397 2.10765H6.50581C6.73711 2.10198 6.96323 2.17688 7.14566 2.31962C7.3281 2.46235 7.45559 2.66408 7.50642 2.89049C7.50642 3.16147 7.59648 3.44249 7.65651 3.71347C7.77216 4.23924 7.926 4.75583 8.1168 5.25908L6.71594 5.92148C6.47515 6.03235 6.28803 6.23447 6.19562 6.48352C6.09554 6.72787 6.09554 7.00194 6.19562 7.24629C7.6357 10.3403 10.1153 12.8273 13.1999 14.2718C13.4435 14.3722 13.7168 14.3722 13.9604 14.2718C14.2087 14.1791 14.4102 13.9914 14.5207 13.7499L15.1511 12.3448C15.6673 12.5336 16.1955 12.6878 16.7321 12.8065C16.9922 12.8667 17.2724 12.9169 17.5426 12.957C17.7683 13.008 17.9694 13.1359 18.1117 13.3189C18.254 13.5018 18.3287 13.7286 18.3231 13.9607L18.4131 17.0619ZM12.5095 0C12.2793 0 12.0392 0 11.8091 0C11.5437 0.0226255 11.2981 0.150065 11.1264 0.354283C10.9547 0.558501 10.8709 0.822769 10.8935 1.08895C10.9161 1.35513 11.0431 1.60143 11.2467 1.77365C11.4503 1.94587 11.7138 2.02991 11.9792 2.00728H12.5095C14.1018 2.00728 15.6288 2.64173 16.7547 3.77104C17.8806 4.90036 18.5132 6.43204 18.5132 8.02913C18.5132 8.20979 18.5132 8.38041 18.5132 8.56106C18.491 8.82583 18.5744 9.08862 18.7451 9.29181C18.9158 9.495 19.1598 9.62201 19.4237 9.64499H19.5038C19.7543 9.64601 19.996 9.55276 20.1813 9.38366C20.3666 9.21456 20.4819 8.98191 20.5044 8.73168C20.5044 8.50084 20.5044 8.25997 20.5044 8.02913C20.5044 5.90141 19.6624 3.86069 18.1633 2.35522C16.6643 0.849757 14.6308 0.00265965 12.5095 0ZM14.5107 8.02913C14.5107 8.29531 14.6161 8.55059 14.8038 8.73881C14.9914 8.92703 15.246 9.03277 15.5113 9.03277C15.7767 9.03277 16.0312 8.92703 16.2189 8.73881C16.4065 8.55059 16.5119 8.29531 16.5119 8.02913C16.5119 6.9644 16.0903 5.94328 15.3397 5.1904C14.589 4.43753 13.571 4.01457 12.5095 4.01457C12.2441 4.01457 11.9896 4.12031 11.8019 4.30853C11.6143 4.49674 11.5089 4.75202 11.5089 5.01821C11.5089 5.28439 11.6143 5.53967 11.8019 5.72789C11.9896 5.91611 12.2441 6.02185 12.5095 6.02185C13.0402 6.02185 13.5493 6.23333 13.9246 6.60977C14.2999 6.98621 14.5107 7.49677 14.5107 8.02913Z" fill="black"/>
</svg>
