<svg width="24" height="22" viewBox="0 0 24 22" fill="none" xmlns="http://www.w3.org/2000/svg">
<path fill-rule="evenodd" clip-rule="evenodd" d="M17.64 15.9654C18.0181 15.5628 18.651 15.543 19.0535 15.9211L23.6846 20.2711C24.0872 20.6492 24.107 21.2821 23.7288 21.6846C23.3507 22.0872 22.7179 22.107 22.3153 21.7289L17.6843 17.3789C17.2817 17.0008 17.2619 16.3679 17.64 15.9654Z" fill="black"/>
<path fill-rule="evenodd" clip-rule="evenodd" d="M20.6845 10.161C20.6845 15.7727 16.1353 20.322 10.5235 20.322C4.91177 20.322 0.362549 15.7727 0.362549 10.161C0.362549 4.54923 4.91177 0 10.5235 0C16.1353 0 20.6845 4.54923 20.6845 10.161ZM10.5235 18.322C15.0307 18.322 18.6845 14.6682 18.6845 10.161C18.6845 5.6538 15.0307 2 10.5235 2C6.01634 2 2.36255 5.6538 2.36255 10.161C2.36255 14.6682 6.01634 18.322 10.5235 18.322Z" fill="black"/>
</svg>
