<svg width="25" height="21" viewBox="0 0 25 21" fill="none" xmlns="http://www.w3.org/2000/svg">
<path d="M0.888085 18.1966C3.11494 19.59 5.68886 20.3289 8.31575 20.3289C10.1345 20.3577 11.9405 20.0207 13.6265 19.3379C15.3125 18.6552 16.8441 17.6405 18.1303 16.3543C19.4165 15.0681 20.4312 13.5365 21.1139 11.8505C21.7967 10.1645 22.1337 8.35851 22.1049 6.53975C23.255 5.57358 23.9819 4.1962 24.1306 2.70153C24.1278 2.57366 24.0922 2.44866 24.0271 2.33853C23.9621 2.22839 23.8699 2.13682 23.7592 2.07259C23.6486 2.00837 23.5234 1.97365 23.3955 1.97176C23.2676 1.96988 23.1414 2.00089 23.0289 2.06183C22.6622 2.30681 22.2478 2.47146 21.8129 2.54496C21.378 2.61846 20.9325 2.59915 20.5056 2.4883C19.6871 1.69056 18.6338 1.17702 17.5012 1.02344C16.3686 0.869869 15.2166 1.08439 14.2152 1.63536C13.3385 2.08107 12.6099 2.77161 12.1178 3.62323C11.6258 4.47485 11.3914 5.45094 11.4432 6.43313C8.31021 6.04181 5.44108 4.48029 3.41137 2.06183C3.34216 1.9664 3.25133 1.88872 3.14631 1.83515C3.0413 1.78159 2.92508 1.75366 2.8072 1.75366C2.68931 1.75366 2.57311 1.78159 2.46809 1.83515C2.36308 1.88872 2.27225 1.9664 2.20304 2.06183C1.75732 2.84097 1.52285 3.72302 1.52285 4.62064C1.52285 5.51826 1.75732 6.40031 2.20304 7.17945C2.02116 7.21305 1.85708 7.31005 1.73996 7.4532C1.62283 7.59634 1.56026 7.77638 1.56334 7.96131C1.55783 8.7115 1.71734 9.45374 2.03055 10.1354C2.34377 10.8171 2.80303 11.4217 3.37582 11.9061C3.27096 12.0035 3.19792 12.1301 3.16621 12.2696C3.13451 12.4091 3.14563 12.5549 3.19813 12.688C3.43645 13.4142 3.83017 14.0797 4.35186 14.6382C4.87356 15.1967 5.51069 15.6348 6.21894 15.9221C4.75419 16.6407 3.1104 16.9126 1.49226 16.7039C1.31832 16.6721 1.13874 16.7032 0.985533 16.7914C0.832328 16.8797 0.715443 17.0195 0.655703 17.1859C0.595962 17.3524 0.597252 17.5346 0.659336 17.7001C0.721421 17.8657 0.840274 18.0038 0.994711 18.0899L0.888085 18.1966ZM8.52899 16.2774C8.64242 16.1818 8.72477 16.0546 8.76554 15.9119C8.80631 15.7693 8.80365 15.6177 8.75788 15.4766C8.71211 15.3355 8.62531 15.2112 8.50858 15.1196C8.39185 15.028 8.25048 14.9734 8.10252 14.9625C7.50416 14.9502 6.91679 14.7993 6.38651 14.5218C5.85622 14.2444 5.39744 13.8478 5.04616 13.3632C5.37696 13.3977 5.71045 13.3977 6.04125 13.3632C6.20701 13.3264 6.35526 13.2342 6.46152 13.1017C6.56777 12.9692 6.62568 12.8045 6.62568 12.6347C6.62568 12.4649 6.56777 12.3002 6.46152 12.1677C6.35526 12.0352 6.20701 11.943 6.04125 11.9061C5.37441 11.768 4.75635 11.4549 4.25047 10.9989C3.74459 10.543 3.36913 9.96073 3.16259 9.3118C3.54078 9.34864 3.92166 9.34864 4.29984 9.3118C4.46358 9.31324 4.62323 9.26079 4.75422 9.16254C4.88521 9.06429 4.98025 8.92569 5.0247 8.7681C5.06915 8.61051 5.06053 8.44268 5.00019 8.29046C4.93984 8.13825 4.83113 8.0101 4.69077 7.92577C4.02621 7.5201 3.51324 6.90742 3.23073 6.18188C2.94822 5.45635 2.9118 4.65811 3.12705 3.90986C5.56535 6.37004 8.83646 7.82809 12.2961 7.99685C12.4111 8.00017 12.5252 7.97689 12.6296 7.92883C12.7341 7.88076 12.826 7.80923 12.8983 7.71978C12.9705 7.63034 13.0211 7.52541 13.0461 7.41319C13.0711 7.30097 13.0699 7.18449 13.0424 7.07283C12.8301 6.26971 12.9058 5.41758 13.2563 4.66446C13.6069 3.91134 14.2103 3.30483 14.9616 2.9503C15.7046 2.52853 16.568 2.36929 17.4126 2.49824C18.2572 2.62718 19.0338 3.03682 19.6172 3.66109C20.0436 4.12309 21.5363 4.12309 22.3181 3.9454C21.9932 4.57271 21.5317 5.11919 20.9676 5.54465C20.8597 5.61917 20.7733 5.72082 20.7171 5.83937C20.661 5.95791 20.6371 6.08916 20.6478 6.2199C20.7209 7.86909 20.4553 9.51577 19.8674 11.0583C19.2795 12.6009 18.3818 14.0067 17.2295 15.1889C16.0773 16.371 14.6951 17.3046 13.1681 17.9319C11.6411 18.5592 10.0018 18.867 8.35129 18.8363C6.98692 18.841 5.63076 18.6249 4.33538 18.1966C5.87159 17.8834 7.31727 17.2274 8.56453 16.2774H8.52899Z" fill="black"/>
</svg>
