<svg width="22" height="24" viewBox="0 0 22 24" fill="none" xmlns="http://www.w3.org/2000/svg">
<path d="M5.68985 15.9264H1.74501C1.5775 15.9396 1.40958 15.9069 1.25929 15.8317C1.109 15.7566 0.98204 15.6419 0.892081 15.5C0.80332 15.3622 0.756104 15.2018 0.756104 15.038C0.756104 14.8741 0.80332 14.7137 0.892081 14.576L4.44599 8.21447L2.7401 4.66057C2.65299 4.50278 2.60729 4.32549 2.60729 4.14525C2.60729 3.96501 2.65299 3.78772 2.7401 3.62994C2.7401 3.38116 3.13104 2.99023 3.55751 2.99023H7.50235C7.85774 2.99023 8.14205 3.239 8.39082 3.70101L10.3455 7.85908C10.4143 7.99705 10.4501 8.14913 10.4501 8.30332C10.4501 8.45751 10.4143 8.60959 10.3455 8.74756L6.54278 15.3934C6.46728 15.5551 6.34656 15.6915 6.1952 15.7861C6.04384 15.8807 5.86832 15.9295 5.68985 15.9264ZM2.13594 14.8603H5.68985L9.49252 8.28555L7.53787 4.19856H3.77074L5.61875 7.9657C5.66242 8.04134 5.68543 8.12713 5.68543 8.21447C5.68543 8.30181 5.66242 8.38761 5.61875 8.46324L2.13594 14.8603Z" fill="black"/>
<path d="M5.68985 15.9264H1.74501C1.5775 15.9396 1.40958 15.9069 1.25929 15.8317C1.109 15.7566 0.98204 15.6419 0.892081 15.5C0.80332 15.3622 0.756104 15.2018 0.756104 15.038C0.756104 14.8741 0.80332 14.7137 0.892081 14.576L4.44599 8.21447L2.7401 4.66057C2.65299 4.50278 2.60729 4.32549 2.60729 4.14525C2.60729 3.96501 2.65299 3.78772 2.7401 3.62994C2.7401 3.38116 3.13104 2.99023 3.55751 2.99023H7.50235C7.85774 2.99023 8.14205 3.239 8.39082 3.70101L10.3455 7.85908C10.4143 7.99705 10.4501 8.14913 10.4501 8.30332C10.4501 8.45751 10.4143 8.60959 10.3455 8.74756L6.54278 15.3934C6.46728 15.5551 6.34656 15.6915 6.1952 15.7861C6.04384 15.8807 5.86832 15.9295 5.68985 15.9264ZM2.13594 14.8603H5.68985L9.49252 8.28555L7.53787 4.19856H3.77074L5.61875 7.9657C5.66242 8.04134 5.68543 8.12713 5.68543 8.21447C5.68543 8.30181 5.66242 8.38761 5.61875 8.46324L2.13594 14.8603Z" stroke="black"/>
<path d="M18.4131 22.8577L18.3953 22.8551H18.3773H14.4324H14.4226L14.4128 22.8559C14.2906 22.8655 14.1682 22.8416 14.0585 22.7868C13.9503 22.7327 13.8587 22.6505 13.7933 22.5489L8.96641 14.1728C8.90791 14.0551 8.87744 13.9254 8.87744 13.7939C8.87744 13.662 8.90809 13.5319 8.96693 13.4139L15.7875 1.30017L15.7878 1.30032L15.7934 1.28901C15.8542 1.16709 15.9458 1.06319 16.0591 0.987644L15.9204 0.779631L16.0591 0.987644C16.1703 0.913543 16.2985 0.869231 16.4316 0.858887H20.3286C20.4618 0.86268 20.5912 0.903865 20.702 0.977767L20.8403 0.770392L20.702 0.977768C20.8136 1.0522 20.9019 1.15675 20.9565 1.27929L20.9562 1.27941L20.9618 1.29041C21.0222 1.40964 21.0536 1.5414 21.0536 1.67506C21.0536 1.80706 21.0229 1.93722 20.964 2.05527L14.3921 13.7782L14.3225 13.9024L14.3937 14.0257L18.9783 21.9509L18.9782 21.9509L18.981 21.9555C19.0451 22.061 19.079 22.182 19.079 22.3055C19.079 22.4232 19.0481 22.5388 18.9896 22.6408C18.9215 22.7204 18.8349 22.7821 18.7371 22.8204C18.6342 22.8606 18.5225 22.8735 18.4131 22.8577ZM14.2157 22.1636L14.2878 22.2889H14.4324H17.9863H18.4205L18.2026 21.9134L13.5825 13.9527L13.5827 13.9526L13.5774 13.9443C13.5522 13.9046 13.5389 13.8586 13.5389 13.8116C13.5389 13.7647 13.5522 13.7187 13.5774 13.679L13.5777 13.6792L13.5843 13.6674L20.3012 1.69073L20.51 1.31844H20.0831H16.4937H16.3472L16.2756 1.44633L9.45208 13.6362L9.38279 13.76L9.45351 13.883L14.2157 22.1636Z" fill="black" stroke="black" stroke-width="0.5"/>
</svg>
