<svg width="26" height="20" viewBox="0 0 26 20" fill="none" xmlns="http://www.w3.org/2000/svg">
<path d="M17.1078 8.63535L11.4571 5.54345C11.2993 5.45634 11.122 5.41064 10.9417 5.41064C10.7615 5.41064 10.5842 5.45634 10.4264 5.54345C10.2736 5.63578 10.1475 5.7662 10.0602 5.92195C9.97303 6.0777 9.92777 6.25342 9.92888 6.43193V12.5446C9.92009 12.7245 9.96207 12.9032 10.0501 13.0603C10.138 13.2174 10.2685 13.3466 10.4264 13.4331C10.5824 13.5442 10.768 13.6061 10.9595 13.6108C11.1242 13.638 11.2923 13.638 11.4571 13.6108L17.0722 10.59C17.2435 10.5041 17.3875 10.3721 17.4879 10.2089C17.5884 10.0456 17.6414 9.85764 17.6408 9.66598C17.6567 9.4616 17.6151 9.25687 17.521 9.0748C17.4268 8.89272 17.2837 8.74054 17.1078 8.63535ZM11.4215 11.8339V7.35594L15.6151 9.66598L11.4215 11.8339Z" fill="black"/>
<path d="M25.7435 4.69046C25.6313 3.62411 25.2389 2.60642 24.6063 1.74072C24.2578 1.35661 23.8364 1.04567 23.3666 0.82602C22.8968 0.606368 22.3879 0.482391 21.8697 0.461314C18.3158 0.212541 13.3759 0.177002 13.3404 0.177002C13.3404 0.177002 8.1872 0.177002 4.77546 0.461314C4.25468 0.486928 3.7443 0.616463 3.27434 0.842288C2.80438 1.06811 2.38435 1.38567 2.03896 1.77626C1.40924 2.62706 1.02785 3.63586 0.937232 4.69046C0.788974 6.07145 0.717794 7.45962 0.724007 8.84853V10.9098C0.717794 12.2987 0.788974 13.6869 0.937232 15.0679C1.01439 16.1255 1.39716 17.1379 2.03896 17.9821C2.78703 18.7581 3.80516 19.2162 4.88207 19.2615H5.20193C7.15658 19.4392 13.2693 19.5458 13.5181 19.5458C13.5181 19.5458 18.6712 19.5458 22.0474 19.2615C22.5656 19.2404 23.0745 19.1164 23.5443 18.8968C24.0141 18.6771 24.4355 18.3662 24.784 17.9821C25.3819 17.1143 25.76 16.1142 25.8857 15.0679C25.8857 15.0679 25.8857 12.9355 25.8857 10.9098V8.99068C25.9212 6.8228 25.7435 4.76154 25.7435 4.69046ZM24.4285 10.9098C24.4285 12.7934 24.4285 14.748 24.4285 14.9257C24.3515 15.6634 24.0953 16.371 23.6822 16.987C23.4693 17.2422 23.2031 17.4476 22.9022 17.5888C22.6013 17.7301 22.2732 17.8036 21.9408 17.8044C18.6712 18.0531 13.7668 18.0887 13.5536 18.0887C13.3404 18.0887 7.26318 18.0887 5.37961 17.8044H5.05977C4.33805 17.7922 3.64954 17.4989 3.14066 16.987C2.71127 16.3821 2.46458 15.6667 2.42989 14.9257C2.42989 14.9257 2.42989 12.8289 2.42989 10.9098V8.99068C2.42989 7.10711 2.42989 5.15247 2.42989 4.97477C2.49897 4.24082 2.74268 3.53405 3.14066 2.91351C3.36572 2.65178 3.64351 2.44051 3.95585 2.29353C4.26818 2.14655 4.60803 2.06717 4.95316 2.06057C8.25829 1.8118 13.1982 1.77626 13.3759 1.77626C13.5536 1.77626 18.4935 1.77626 21.7631 2.06057C22.1102 2.06627 22.4526 2.14154 22.77 2.28195C23.0874 2.42235 23.3735 2.62503 23.6112 2.87797C24.0145 3.50897 24.2585 4.22856 24.3219 4.97477C24.3219 4.97477 24.3219 7.07158 24.3219 8.99068L24.4285 10.9098Z" fill="black"/>
</svg>
